<svg width="606" height="217" viewBox="0 0 606 217" fill="none" xmlns="http://www.w3.org/2000/svg">
<rect width="606" height="217" fill="#1E2126"/>
<path d="M109.438 49.4141H103.859L102.53 45.6012C102.439 45.3403 102.27 45.1147 102.049 44.9554C101.827 44.7961 101.563 44.7107 101.292 44.7109H88.7082C88.1545 44.7109 87.6582 45.0679 87.4736 45.6012L86.1406 49.4141H80.5625C78.7496 49.4141 77.2812 50.9174 77.2812 52.7734V71.9219C77.2812 73.7779 78.7496 75.2812 80.5625 75.2812H109.438C111.25 75.2812 112.719 73.7779 112.719 71.9219V52.7734C112.719 50.9174 111.25 49.4141 109.438 49.4141ZM109.766 71.9219C109.766 72.1066 109.618 72.2578 109.438 72.2578H80.5625C80.382 72.2578 80.2344 72.1066 80.2344 71.9219V52.7734C80.2344 52.5887 80.382 52.4375 80.5625 52.4375H88.2201L88.9215 50.4303L89.8607 47.7344H100.135L101.074 50.4303L101.776 52.4375H109.438C109.618 52.4375 109.766 52.5887 109.766 52.7734V71.9219ZM95 55.125C91.3742 55.125 88.4375 58.1316 88.4375 61.8438C88.4375 65.5559 91.3742 68.5625 95 68.5625C98.6258 68.5625 101.562 65.5559 101.562 61.8438C101.562 58.1316 98.6258 55.125 95 55.125ZM95 65.875C92.8262 65.875 91.0625 64.0693 91.0625 61.8438C91.0625 59.6182 92.8262 57.8125 95 57.8125C97.1738 57.8125 98.9375 59.6182 98.9375 61.8438C98.9375 64.0693 97.1738 65.875 95 65.875Z" fill="white"/>
<path d="M136.172 9.125V5.625C136.172 5.50897 136.223 5.39769 136.314 5.31564C136.405 5.23359 136.528 5.1875 136.656 5.1875C136.785 5.1875 136.908 5.23359 136.999 5.31564C137.09 5.39769 137.141 5.50897 137.141 5.625V9.125C137.141 9.24103 137.09 9.35231 136.999 9.43436C136.908 9.51641 136.785 9.5625 136.656 9.5625C136.528 9.5625 136.405 9.51641 136.314 9.43436C136.223 9.35231 136.172 9.24103 136.172 9.125ZM140.531 9.5625C140.66 9.5625 140.783 9.51641 140.874 9.43436C140.965 9.35231 141.016 9.24103 141.016 9.125V5.625C141.016 5.50897 140.965 5.39769 140.874 5.31564C140.783 5.23359 140.66 5.1875 140.531 5.1875C140.403 5.1875 140.28 5.23359 140.189 5.31564C140.098 5.39769 140.047 5.50897 140.047 5.625V9.125C140.047 9.24103 140.098 9.35231 140.189 9.43436C140.28 9.51641 140.403 9.5625 140.531 9.5625ZM144.406 9.5625C144.535 9.5625 144.658 9.51641 144.749 9.43436C144.84 9.35231 144.891 9.24103 144.891 9.125V5.625C144.891 5.50897 144.84 5.39769 144.749 5.31564C144.658 5.23359 144.535 5.1875 144.406 5.1875C144.278 5.1875 144.155 5.23359 144.064 5.31564C143.973 5.39769 143.922 5.50897 143.922 5.625V9.125C143.922 9.24103 143.973 9.35231 144.064 9.43436C144.155 9.51641 144.278 9.5625 144.406 9.5625ZM155.547 16.125V17C155.546 18.0439 155.086 19.0448 154.269 19.783C153.451 20.5211 152.343 20.9363 151.188 20.9375H151.138C150.379 23.0726 148.855 24.9193 146.808 26.1875H151.188C151.316 26.1875 151.439 26.2336 151.53 26.3156C151.621 26.3977 151.672 26.509 151.672 26.625C151.672 26.741 151.621 26.8523 151.53 26.9344C151.439 27.0164 151.316 27.0625 151.188 27.0625H144.982C144.98 27.0625 144.978 27.063 144.976 27.063C144.973 27.063 144.97 27.0625 144.968 27.0625H129.875C129.747 27.0625 129.623 27.0164 129.532 26.9344C129.442 26.8523 129.391 26.741 129.391 26.625C129.391 26.509 129.442 26.3977 129.532 26.3156C129.623 26.2336 129.747 26.1875 129.875 26.1875H134.255C132.759 25.2621 131.534 24.0218 130.686 22.5737C129.839 21.1255 129.394 19.513 129.391 17.875V12.625C129.391 12.509 129.442 12.3977 129.532 12.3156C129.623 12.2336 129.747 12.1875 129.875 12.1875H151.188C152.343 12.1887 153.451 12.6039 154.269 13.342C155.086 14.0802 155.546 15.0811 155.547 16.125ZM150.304 20.4132C150.304 20.4103 150.306 20.4077 150.306 20.405C150.569 19.5826 150.703 18.7309 150.703 17.875V13.0625H130.359V17.875C130.363 19.6171 130.913 21.3226 131.946 22.7938C132.98 24.265 134.453 25.4417 136.196 26.1875H144.866C146.174 25.6279 147.335 24.8237 148.272 23.8282C149.21 22.8327 149.902 21.6687 150.304 20.4132ZM154.578 16.125C154.577 15.3889 154.283 14.6777 153.749 14.1212C153.216 13.5648 152.478 13.2003 151.672 13.0942V17.875C151.672 18.6085 151.582 19.3397 151.405 20.0555C152.264 20.0048 153.07 19.6609 153.659 19.0936C154.249 18.5263 154.577 17.7779 154.578 17V16.125Z" fill="white"/>
<path d="M243 67.375H303L298.021 29.3863C297.984 26.1971 298.069 24.431 298.069 24.431C297.293 24.6588 296.138 24.7465 294.755 24.7465C294.521 24.7465 294.276 24.7427 294.027 24.7379C294.022 22.7468 294.066 21.625 294.066 21.625C292.865 23.1309 290.301 23.5141 287.378 23.5141C284.343 23.5141 280.922 23.1014 278.234 23.1014C274.087 23.1014 273.201 25.7463 273.009 26.8834C272.817 25.7415 271.927 23.1081 267.789 23.1081C265.101 23.1081 261.682 23.5208 258.648 23.5208C255.722 23.5208 253.158 23.1376 251.957 21.6298C251.957 21.6298 252.001 22.7506 251.995 24.737C251.748 24.7408 251.502 24.7455 251.267 24.7455C249.882 24.7455 248.73 24.6578 247.954 24.43C247.954 24.43 248.035 26.118 248.004 29.1823L243 67.375ZM294.755 26.5212C295.26 26.5212 295.723 26.5098 296.148 26.4878C296.096 31.6662 296.327 45.8125 299.637 64.1172C299.024 64.0235 298.413 63.9177 297.804 63.7998C298.196 63.6445 298.507 63.4329 298.717 63.1479C294.923 47.8302 294.16 33.6696 294.046 26.5117C294.286 26.5164 294.525 26.5212 294.755 26.5212ZM278.624 25.5433C280.655 25.5433 283.373 25.7711 286.248 26.0122C288.256 26.1809 290.307 26.3506 292.178 26.4459C292.293 33.4943 293.024 47.3241 296.585 62.291C296.316 62.3339 295.943 62.3673 295.429 62.3673C293.529 62.3673 290.807 61.9069 288.175 61.4609C285.211 60.9595 282.147 60.4401 279.647 60.4401C277.709 60.4401 276.183 60.787 274.98 61.3179C274.934 61.336 274.881 61.3493 274.838 61.3684L274.831 27.9985C274.866 27.5277 275.214 25.5433 278.624 25.5433ZM253.848 26.4459C255.719 26.3506 257.768 26.1809 259.775 26.0122C262.651 25.772 265.369 25.5433 267.402 25.5433C270.701 25.5433 271.142 27.3809 271.193 28.0376L271.184 61.3675C271.105 61.3341 271.011 61.3074 270.928 61.276C269.74 60.7718 268.254 60.442 266.373 60.442C263.873 60.442 260.809 60.9624 257.846 61.4637C255.212 61.9107 252.491 62.3711 250.591 62.3711C250.077 62.3711 249.703 62.3377 249.438 62.2958C253 47.327 253.731 33.4924 253.848 26.4459ZM249.877 26.4878C250.303 26.5098 250.765 26.5212 251.27 26.5212C251.5 26.5212 251.74 26.5164 251.98 26.5126C251.865 33.6687 251.101 47.8331 247.305 63.1536C247.514 63.4367 247.822 63.6483 248.209 63.8027C247.588 63.9209 246.977 64.0286 246.383 64.1182C249.696 45.8125 249.928 31.6662 249.877 26.4878Z" fill="white"/>
<path d="M266.197 27.2638C268.763 27.2638 269.609 27.8185 269.618 27.8242L269.856 27.5269L270.099 27.2362C270 27.1656 269.05 26.5347 266.224 26.5347C264.097 26.5347 261.471 27.0484 259.141 27.5002C257.443 27.8319 255.972 28.1188 255.13 28.1188L255.061 28.8603C255.988 28.8603 257.502 28.5639 259.251 28.2207C261.551 27.7718 264.145 27.2638 266.197 27.2638Z" fill="white"/>
<path d="M266.063 31C268.679 31 269.544 31.5766 269.552 31.5824L269.794 31.2755L270.042 30.9724C269.941 30.8952 268.973 30.2404 266.091 30.2404C263.922 30.2404 261.244 30.7722 258.868 31.2459C257.135 31.5881 255.635 31.8874 254.777 31.8874L254.704 32.6603C255.65 32.6603 257.193 32.3515 258.978 31.997C261.322 31.529 263.971 31 266.063 31Z" fill="white"/>
<path d="M265.924 34.8887C268.593 34.8887 269.473 35.4863 269.483 35.4939L269.73 35.1737L269.984 34.8601C269.88 34.7801 268.891 34.0986 265.952 34.0986C263.74 34.0986 261.008 34.6523 258.583 35.1441C256.814 35.5016 255.282 35.8132 254.408 35.8132L254.331 36.6158C255.297 36.6158 256.873 36.2955 258.693 35.9257C261.086 35.4368 263.788 34.8887 265.924 34.8887Z" fill="white"/>
<path d="M265.777 38.9357C268.5 38.9357 269.399 39.5609 269.41 39.5667L269.662 39.234L269.92 38.9042C269.815 38.8232 268.806 38.1122 265.808 38.1122C263.55 38.1122 260.76 38.6888 258.285 39.2026C256.479 39.5752 254.917 39.8974 254.022 39.8974L253.944 40.7361C254.928 40.7361 256.54 40.4016 258.398 40.0156C260.842 39.5076 263.598 38.9357 265.777 38.9357Z" fill="white"/>
<path d="M265.626 43.1532C268.406 43.1532 269.325 43.8051 269.333 43.8118L269.593 43.4639L269.857 43.1208C269.748 43.036 268.719 42.2963 265.657 42.2963C263.353 42.2963 260.504 42.8968 257.976 43.4305C256.13 43.8185 254.535 44.1568 253.621 44.1568L253.54 45.0308C254.545 45.0308 256.189 44.682 258.089 44.2779C260.584 43.7489 263.398 43.1532 265.626 43.1532Z" fill="white"/>
<path d="M265.467 47.5519C268.307 47.5519 269.245 48.2306 269.254 48.2382L269.518 47.876L269.789 47.5186C269.679 47.4299 268.628 46.6579 265.501 46.6579C263.147 46.6579 260.235 47.2851 257.653 47.8417C255.766 48.2477 254.135 48.5994 253.202 48.5994L253.117 49.5097C254.145 49.5097 255.827 49.1465 257.767 48.7271C260.317 48.1734 263.194 47.5519 265.467 47.5519Z" fill="white"/>
<path d="M265.303 52.144C268.205 52.144 269.162 52.8551 269.172 52.8627L269.442 52.4834L269.717 52.1097C269.605 52.0163 268.531 51.2109 265.335 51.2109C262.93 51.2109 259.955 51.8667 257.314 52.4462C255.387 52.8703 253.718 53.2392 252.766 53.2392L252.676 54.1923C253.727 54.1923 255.446 53.8111 257.43 53.3717C260.038 52.7941 262.979 52.144 265.303 52.144Z" fill="white"/>
<path d="M265.128 56.9431C268.098 56.9431 269.075 57.6837 269.085 57.6913L269.361 57.2948L269.644 56.9059C269.528 56.8087 268.432 55.9661 265.165 55.9661C262.705 55.9661 259.662 56.6505 256.961 57.2586C254.99 57.7027 253.283 58.084 252.309 58.084L252.216 59.0809C253.289 59.0809 255.047 58.6844 257.077 58.226C259.746 57.6227 262.754 56.9431 265.128 56.9431Z" fill="white"/>
<path d="M276.406 27.8242C276.414 27.8185 277.26 27.2638 279.826 27.2638C281.88 27.2638 284.473 27.7718 286.772 28.2207C288.521 28.5639 290.035 28.8603 290.961 28.8603L290.892 28.1188C290.05 28.1188 288.579 27.8319 286.881 27.5002C284.553 27.0484 281.926 26.5347 279.799 26.5347C276.975 26.5347 276.023 27.1656 275.923 27.2362L276.167 27.5269L276.406 27.8242Z" fill="white"/>
<path d="M279.934 30.2411C277.051 30.2411 276.082 30.8959 275.983 30.9731L276.231 31.2762L276.472 31.5831C276.481 31.5784 277.345 31.0008 279.962 31.0008C282.054 31.0008 284.701 31.5288 287.045 31.9968C288.829 32.3523 290.373 32.6602 291.319 32.6602L291.246 31.8872C290.39 31.8872 288.889 31.5889 287.156 31.2457C284.781 30.773 282.103 30.2411 279.934 30.2411Z" fill="white"/>
<path d="M280.072 34.0986C277.133 34.0986 276.144 34.7801 276.041 34.8601L276.294 35.1737L276.541 35.4939C276.55 35.4873 277.432 34.8887 280.1 34.8887C282.237 34.8887 284.936 35.4368 287.33 35.9248C289.15 36.2946 290.727 36.6148 291.691 36.6148L291.616 35.8123C290.741 35.8123 289.21 35.5006 287.44 35.1432C285.018 34.6514 282.284 34.0986 280.072 34.0986Z" fill="white"/>
<path d="M280.216 38.1122C277.216 38.1122 276.207 38.8223 276.104 38.9042L276.361 39.234L276.614 39.5667C276.624 39.5609 277.522 38.9357 280.246 38.9357C282.426 38.9357 285.183 39.5076 287.628 40.0146C289.486 40.4006 291.096 40.7352 292.081 40.7352L292 39.8974C291.106 39.8974 289.544 39.5752 287.738 39.2026C285.264 38.6888 282.474 38.1122 280.216 38.1122Z" fill="white"/>
<path d="M280.365 42.2963C277.302 42.2963 276.275 43.036 276.168 43.1208L276.432 43.4639L276.689 43.8118C276.7 43.8051 277.616 43.1532 280.398 43.1532C282.624 43.1532 285.44 43.7489 287.934 44.2779C289.834 44.682 291.479 45.0308 292.485 45.0308L292.403 44.1568C291.489 44.1568 289.893 43.8185 288.049 43.4305C285.521 42.8968 282.672 42.2963 280.365 42.2963Z" fill="white"/>
<path d="M280.521 46.6579C277.394 46.6579 276.344 47.4309 276.233 47.5186L276.504 47.876L276.768 48.2382C276.776 48.2306 277.714 47.5519 280.554 47.5519C282.826 47.5519 285.704 48.1734 288.255 48.7262C290.195 49.1456 291.876 49.5087 292.904 49.5087L292.818 48.5985C291.886 48.5985 290.255 48.2468 288.371 47.8407C285.788 47.2851 282.877 46.6579 280.521 46.6579Z" fill="white"/>
<path d="M280.687 51.2099C277.491 51.2099 276.418 52.0162 276.305 52.1087L276.579 52.4823L276.85 52.8617C276.859 52.854 277.817 52.143 280.72 52.143C283.043 52.143 285.985 52.794 288.592 53.3697C290.576 53.8091 292.296 54.1903 293.346 54.1903L293.255 53.2372C292.302 53.2372 290.634 52.8683 288.709 52.4442C286.067 51.8656 283.092 51.2099 280.687 51.2099Z" fill="white"/>
<path d="M280.857 55.965C277.589 55.965 276.492 56.8085 276.377 56.9048L276.658 57.2937L276.934 57.6902C276.945 57.6826 277.924 56.942 280.891 56.942C283.268 56.942 286.276 57.6216 288.943 58.2249C290.972 58.6833 292.731 59.0798 293.806 59.0798L293.711 58.0829C292.737 58.0829 291.03 57.7016 289.06 57.2575C286.359 56.6494 283.315 55.965 280.857 55.965Z" fill="white"/>
<g clip-path="url(#clip0_23_412)">
<path d="M234.518 10.2006C234.692 10.3151 234.827 10.4788 234.908 10.6707C234.988 10.8626 235.009 11.0741 234.968 11.2781L234.97 11.2718L230.687 36.9718C230.661 37.1286 230.599 37.2774 230.507 37.4072C230.416 37.537 230.296 37.6445 230.157 37.7218L230.152 37.7243C229.997 37.8122 229.822 37.8583 229.645 37.8581H229.632C229.492 37.8549 229.354 37.8257 229.225 37.7718L229.232 37.7743L220.415 34.1743L215.428 39.6456C215.336 39.7556 215.22 39.844 215.09 39.9047C214.959 39.9653 214.817 39.9968 214.673 39.9968H214.641H214.642H214.61C214.487 39.9969 214.365 39.9731 214.251 39.9268L214.257 39.9293C214.054 39.8562 213.88 39.72 213.76 39.5406L213.757 39.5368C213.637 39.359 213.573 39.149 213.573 38.9343V31.3656L205.673 28.1368C205.48 28.0716 205.312 27.948 205.192 27.7833C205.073 27.6185 205.007 27.4205 205.005 27.2168C204.981 27.0184 205.019 26.8174 205.113 26.6412C205.208 26.4651 205.354 26.3221 205.532 26.2318L205.537 26.2293L233.381 10.1668C233.55 10.0506 233.751 9.99118 233.956 9.99725C234.161 10.0033 234.359 10.0745 234.521 10.2006L234.518 10.1993V10.2006ZM228.796 35.2818L232.496 13.1456L208.501 26.9831L214.123 29.2756L228.562 18.5843L220.562 31.9193L228.796 35.2818Z" fill="white"/>
</g>
<path fill-rule="evenodd" clip-rule="evenodd" d="M318 117C317.735 117 317.48 117.105 317.293 117.293C317.105 117.48 317 117.735 317 118V149C317 149.265 317.105 149.52 317.293 149.707C317.48 149.895 317.735 150 318 150H340C340.265 150 340.52 149.895 340.707 149.707C340.895 149.52 341 149.265 341 149V118C341 117.735 340.895 117.48 340.707 117.293C340.52 117.105 340.265 117 340 117H334.417V115H340C340.796 115 341.559 115.316 342.121 115.879C342.684 116.441 343 117.204 343 118V149C343 149.796 342.684 150.559 342.121 151.121C341.559 151.684 340.796 152 340 152H318C317.204 152 316.441 151.684 315.879 151.121C315.316 150.559 315 149.796 315 149V118C315 117.204 315.316 116.441 315.879 115.879C316.441 115.316 317.204 115 318 115H323.583V117H318Z" fill="white"/>
<path fill-rule="evenodd" clip-rule="evenodd" d="M322 115C322 114.204 322.316 113.441 322.879 112.879C323.441 112.316 324.204 112 325 112H333C333.796 112 334.559 112.316 335.121 112.879C335.684 113.441 336 114.204 336 115V117C336 117.796 335.684 118.559 335.121 119.121C334.559 119.684 333.796 120 333 120H325C324.204 120 323.441 119.684 322.879 119.121C322.316 118.559 322 117.796 322 117V115ZM325 114C324.735 114 324.48 114.105 324.293 114.293C324.105 114.48 324 114.735 324 115V117C324 117.265 324.105 117.52 324.293 117.707C324.48 117.895 324.735 118 325 118H333C333.265 118 333.52 117.895 333.707 117.707C333.895 117.52 334 117.265 334 117V115C334 114.735 333.895 114.48 333.707 114.293C333.52 114.105 333.265 114 333 114H325Z" fill="white"/>
<path fill-rule="evenodd" clip-rule="evenodd" d="M320 129C320 128.735 320.105 128.48 320.293 128.293C320.48 128.105 320.735 128 321 128H328C328.265 128 328.52 128.105 328.707 128.293C328.895 128.48 329 128.735 329 129C329 129.265 328.895 129.52 328.707 129.707C328.52 129.895 328.265 130 328 130H321C320.735 130 320.48 129.895 320.293 129.707C320.105 129.52 320 129.265 320 129Z" fill="white"/>
<path fill-rule="evenodd" clip-rule="evenodd" d="M320 124C320 123.735 320.105 123.48 320.293 123.293C320.48 123.105 320.735 123 321 123H336.5C336.765 123 337.02 123.105 337.207 123.293C337.395 123.48 337.5 123.735 337.5 124C337.5 124.265 337.395 124.52 337.207 124.707C337.02 124.895 336.765 125 336.5 125H321C320.735 125 320.48 124.895 320.293 124.707C320.105 124.52 320 124.265 320 124Z" fill="white"/>
<path fill-rule="evenodd" clip-rule="evenodd" d="M322 137V139H324V137H322ZM321 135C320.735 135 320.48 135.105 320.293 135.293C320.105 135.48 320 135.735 320 136V140C320 140.265 320.105 140.52 320.293 140.707C320.48 140.895 320.735 141 321 141H325C325.265 141 325.52 140.895 325.707 140.707C325.895 140.52 326 140.265 326 140V136C326 135.735 325.895 135.48 325.707 135.293C325.52 135.105 325.265 135 325 135H321Z" fill="white"/>
<path fill-rule="evenodd" clip-rule="evenodd" d="M333 137C333.135 137.006 333.27 136.985 333.396 136.938C333.523 136.89 333.638 136.818 333.736 136.724C333.834 136.631 333.912 136.519 333.965 136.395C334.018 136.271 334.046 136.137 334.046 136.002C334.046 135.867 334.019 135.733 333.966 135.609C333.913 135.485 333.835 135.372 333.738 135.279C333.64 135.186 333.525 135.113 333.398 135.065C333.272 135.018 333.137 134.996 333.002 135.002C332.745 135.013 332.502 135.123 332.324 135.309C332.146 135.495 332.046 135.743 332.046 136C332.045 136.258 332.145 136.505 332.322 136.691C332.5 136.878 332.743 136.988 333 137ZM333 139C333.796 139 334.559 138.684 335.121 138.121C335.684 137.559 336 136.796 336 136C336 135.204 335.684 134.441 335.121 133.879C334.559 133.316 333.796 133 333 133C332.204 133 331.441 133.316 330.879 133.879C330.316 134.441 330 135.204 330 136C330 136.796 330.316 137.559 330.879 138.121C331.441 138.684 332.204 139 333 139Z" fill="white"/>
<path fill-rule="evenodd" clip-rule="evenodd" d="M329 143.28C329.017 143.26 329.036 143.24 329.055 143.221C329.219 143.061 329.535 142.849 330.031 142.638C331.031 142.213 332.265 142 333 142C333.735 142 334.969 142.213 335.969 142.638C336.465 142.848 336.781 143.061 336.945 143.221C336.964 143.24 336.983 143.259 337 143.279V145H329V143.28ZM333 140C330.997 140 327 141.066 327 143.182V147H339V143.182C339 141.066 335.003 140 333 140Z" fill="white"/>
<g clip-path="url(#clip1_23_412)">
<path d="M285 111L289 117L284 128M278 111H290L294 117L284 129L274 117L278 111ZM274 117H294H274ZM283 111L279 117L284 128L283 111Z" stroke="white" stroke-width="2"/>
</g>
<path d="M398.021 120.465L385.396 132.174L381.111 130.522L380.728 130.882L386.183 134.254L389.822 139.311L390.207 138.954L388.428 134.981L401.053 123.276L410.971 136.562L411.453 136.12L404.837 119.766L414.92 110.42C415.301 110.043 415.508 109.544 415.499 109.028C415.49 108.511 415.265 108.019 414.871 107.654C414.478 107.289 413.946 107.08 413.39 107.071C412.833 107.063 412.294 107.256 411.888 107.609L401.805 116.956L384.173 110.824L383.691 111.268L398.021 120.465ZM410.373 142.741L400.45 129.454L393.484 135.914L395.264 139.887L389.155 145.55L383.093 137.12L374 131.498L380.11 125.833L384.393 127.482L391.359 121.022L377.03 111.825L383.093 106.204L400.728 112.335L408.856 104.797C409.451 104.233 410.16 103.783 410.943 103.475C411.726 103.166 412.568 103.005 413.419 103C414.27 102.995 415.113 103.147 415.9 103.447C416.687 103.747 417.403 104.189 418.004 104.746C418.606 105.304 419.082 105.967 419.406 106.697C419.729 107.427 419.893 108.209 419.888 108.998C419.882 109.787 419.709 110.568 419.376 111.294C419.043 112.02 418.558 112.678 417.95 113.229L409.821 120.767L416.435 137.12L410.371 142.741H410.373Z" fill="white"/>
<path d="M457.5 160H452.375C451.75 157.7 449.25 156 446.25 156C443.25 156 440.75 157.7 440.125 160H422.5V162H440.125C440.75 164.3 443.25 166 446.25 166C449.25 166 451.75 164.3 452.375 162H457.5V160ZM446.25 164C444.125 164 442.5 162.7 442.5 161C442.5 159.3 444.125 158 446.25 158C448.375 158 450 159.3 450 161C450 162.7 448.375 164 446.25 164Z" fill="white"/>
<path d="M422.5 176H427.625C428.25 178.3 430.75 180 433.75 180C436.75 180 439.25 178.3 439.875 176H457.5V174H439.875C439.25 171.7 436.75 170 433.75 170C430.75 170 428.25 171.7 427.625 174H422.5V176ZM433.75 172C435.875 172 437.5 173.3 437.5 175C437.5 176.7 435.875 178 433.75 178C431.625 178 430 176.7 430 175C430 173.3 431.625 172 433.75 172Z" fill="white"/>
<path d="M356.417 19H353.583V20.5C353.583 20.8978 353.733 21.2794 353.998 21.5607C354.264 21.842 354.624 22 355 22C355.376 22 355.736 21.842 356.002 21.5607C356.267 21.2794 356.417 20.8978 356.417 20.5V19Z" fill="white"/>
<path fill-rule="evenodd" clip-rule="evenodd" d="M346.5 13V16H347.917V20.5C347.917 22.4891 348.663 24.3968 349.991 25.8033C351.32 27.2098 353.121 28 355 28C353.121 28 351.32 28.7902 349.991 30.1967C348.663 31.6032 347.917 33.5109 347.917 35.5V40H346.5V43H363.5V40H362.083V35.5C362.083 33.5109 361.337 31.6032 360.009 30.1967C358.68 28.7902 356.879 28 355 28C355.93 28 356.851 27.806 357.711 27.4291C358.57 27.0522 359.351 26.4997 360.009 25.8033C360.666 25.1069 361.188 24.2801 361.544 23.3701C361.9 22.4602 362.083 21.4849 362.083 20.5V16H363.5V13H346.5ZM350.75 16H359.25V20.5C359.25 21.6935 358.802 22.8381 358.005 23.682C357.208 24.5259 356.127 25 355 25C353.873 25 352.792 24.5259 351.995 23.682C351.198 22.8381 350.75 21.6935 350.75 20.5V16ZM350.75 35.5V40H359.25V35.5C359.25 34.3065 358.802 33.1619 358.005 32.318C357.208 31.4741 356.127 31 355 31C353.873 31 352.792 31.4741 351.995 32.318C351.198 33.1619 350.75 34.3065 350.75 35.5Z" fill="white"/>
<path d="M362 71.6L367.291 59V66C376.327 66 377.369 79.5492 377.118 87C376.739 83.241 376.562 77.2 367.291 77.2V84.2L362 71.6Z" stroke="white" stroke-width="2" stroke-linecap="round" stroke-linejoin="round"/>
<path d="M171.649 28.5581C169.606 28.5581 167.524 29.3419 165.964 30.9019L148.563 48.3056L138.308 52.23L137.313 52.6406L137.136 53.6962L134.5 71.3306L134.148 73.8487L136.669 73.5L154.308 70.8637L155.361 70.6875L155.772 69.6919L159.464 59.9644L160.401 59.0869L177.276 42.2119C180.301 39.1856 180.359 34.3294 177.511 31.1944L177.276 30.9019C176.54 30.1589 175.664 29.5692 174.698 29.1669C173.733 28.7646 172.697 28.5577 171.651 28.5581H171.649ZM171.649 32.25C172.703 32.25 173.759 32.7187 174.636 33.5981C176.395 35.355 176.395 37.8169 174.636 39.5737L165.203 49.0069L159.226 43.0312L168.661 33.5981C169.538 32.7187 170.594 32.25 171.648 32.25H171.649ZM156.531 45.7275L162.509 51.7031L159.109 55.1025L153.132 49.125L156.531 45.7275ZM150.261 51.645H150.319L156.357 57.6787L152.663 67.3481L141.708 68.9287L146.746 63.8906C146.849 63.8981 146.937 63.9487 147.038 63.9487C148.694 63.9487 150.087 62.6175 150.087 60.9619C150.087 59.3062 148.694 57.915 147.038 57.915C145.384 57.915 144.051 59.3062 144.051 60.9619C144.051 61.0631 144.102 61.1512 144.109 61.2544L139.069 66.2925L140.652 55.3369L150.261 51.645Z" fill="white"/>
<path d="M28 33.41V43H37.59L35.59 41H30V35.41L28 33.41Z" fill="white"/>
<path d="M53.87 48.29L51 45.38V48H23V43.85H25V42.25H23V35.6H25V34H23V27.6H25V26H23V20.41L38.94 36.26V33.44L22.71 17.29C22.5701 17.149 22.3914 17.0528 22.1967 17.0137C22.002 16.9747 21.8 16.9945 21.6165 17.0706C21.4331 17.1468 21.2765 17.2759 21.1667 17.4414C21.0569 17.6069 20.9989 17.8014 21 18V49C21 49.2652 21.1054 49.5196 21.2929 49.7071C21.4804 49.8947 21.7348 50 22 50H53.16C53.3586 50.0012 53.5531 49.9432 53.7186 49.8334C53.8841 49.7235 54.0132 49.5669 54.0894 49.3835C54.1656 49.2001 54.1854 48.9981 54.1463 48.8033C54.1072 48.6086 54.011 48.4299 53.87 48.29Z" fill="white"/>
<path d="M43 46H47C47.5304 46 48.0391 45.7893 48.4142 45.4142C48.7893 45.0391 49 44.5304 49 44V24.7L46.7 20.47C46.5221 20.1618 46.2652 19.9067 45.9559 19.7309C45.6465 19.5551 45.2958 19.465 44.94 19.47C44.5761 19.4729 44.22 19.575 43.9098 19.7653C43.5997 19.9556 43.3474 20.2269 43.18 20.55L41 24.72V44C41 44.5304 41.2107 45.0391 41.5858 45.4142C41.9609 45.7893 42.4696 46 43 46ZM43 25.2L44.94 21.43L47 25.21V40H43V25.2ZM43 41.63H47V44.07H43V41.63Z" fill="white"/>
<path d="M218.466 57.317L216.683 55.533C215.06 53.9115 212.86 53.0006 210.566 53.0006C208.272 53.0006 206.072 53.9115 204.449 55.533L168.419 91.565L161.278 110.237C160.44 112.447 161.559 113.56 163.762 112.718L182.437 105.584L218.466 69.551C221.847 66.175 221.843 60.698 218.466 57.317ZM195.837 66.803L198.345 69.31L173.581 94.076L171.073 91.567L195.837 66.803ZM199.671 70.637L203.366 74.333L178.603 99.098L174.908 95.403L199.671 70.637ZM170.026 108.32L165.684 103.974L169.885 93.033L180.964 104.11L170.026 108.32ZM182.437 102.933L179.931 100.424L204.693 75.659L207.201 78.168L182.437 102.933ZM208.646 76.723L197.281 65.36L200.108 62.532L211.473 73.895L208.646 76.723Z" fill="white"/>
<g clip-path="url(#clip2_23_412)">
<path d="M309 96.2673C309 96.4538 309.063 96.6327 309.174 96.7645C309.285 96.8964 309.436 96.9705 309.594 96.9705H346.538C346.617 96.9712 346.694 96.9532 346.767 96.9174C346.839 96.8817 346.905 96.8289 346.96 96.7623L346.963 96.7595C346.967 96.7553 346.967 96.7469 346.972 96.7426C347.031 96.6636 347.074 96.5699 347.099 96.4684C347.107 96.4361 347.11 96.4052 347.115 96.3714C347.12 96.3362 347.133 96.3053 347.133 96.2687C347.133 96.2125 347.116 96.1633 347.106 96.1112C347.102 96.0916 347.109 96.0719 347.103 96.0522L343.351 82.3905C343.322 82.2847 343.273 82.1887 343.206 82.1106L322.879 58.0384C322.858 57.9991 322.843 57.9569 322.814 57.9217L318.374 52.6637C318.027 52.2537 317.556 52.0234 317.066 52.0234C316.576 52.0234 316.105 52.2537 315.758 52.6637L309.541 60.0255C309.192 60.4389 309 60.9887 309 61.5737C309 62.1587 309.192 62.71 309.541 63.1234L313.883 68.2647C313.904 68.3027 313.919 68.3462 313.947 68.38L334.242 92.5745C334.311 92.6586 334.398 92.72 334.493 92.7531L342.465 95.5656H309.594C309.516 95.5654 309.439 95.5835 309.367 95.6186C309.295 95.6538 309.229 95.7055 309.174 95.7706C309.119 95.8358 309.075 95.9132 309.045 95.9985C309.015 96.0837 309 96.1751 309 96.2673V96.2673ZM316.555 66.2889L335.183 88.0661L334.498 90.8814L315.207 67.885L316.555 66.2889ZM336.094 87.1562L317.393 65.2961L320.287 61.8691L338.82 83.8741V87.1562H336.094ZM339.56 82.7617L321.127 60.8748L322.361 59.4137L341.611 82.2105L339.56 82.7617ZM336.298 88.5625H339.414C339.572 88.5625 339.723 88.4884 339.834 88.3566C339.945 88.2247 340.008 88.0458 340.008 87.8594V84.0836L342.391 83.4423L345.625 95.2127L335.545 91.6562L336.298 88.5625ZM310.188 61.5737C310.188 61.3642 310.256 61.1687 310.381 61.0197L316.598 53.658C316.722 53.5112 316.89 53.4288 317.066 53.4288C317.242 53.4288 317.41 53.5112 317.535 53.658L321.539 58.3998L314.386 66.8697L310.382 62.1278C310.32 62.0555 310.271 61.9692 310.238 61.8741C310.204 61.7789 310.187 61.6768 310.188 61.5737Z" fill="white"/>
</g>
<path d="M232.937 114.542H243.061H232.937ZM238 83.625V85.8333V83.625ZM251.789 89.4462L250.257 91.0075L251.789 89.4462ZM257.5 103.5H255.333H257.5ZM220.667 103.5H218.5H220.667ZM225.743 91.0075L224.211 89.4462L225.743 91.0075ZM230.339 111.309C228.824 109.764 227.792 107.797 227.375 105.655C226.957 103.513 227.172 101.293 227.992 99.2759C228.812 97.2585 230.2 95.5342 231.982 94.321C233.763 93.1079 235.857 92.4604 238 92.4604C240.143 92.4604 242.237 93.1079 244.018 94.321C245.8 95.5342 247.188 97.2585 248.008 99.2759C248.828 101.293 249.043 103.513 248.625 105.655C248.208 107.797 247.176 109.764 245.661 111.309L244.474 112.517C243.795 113.209 243.257 114.03 242.889 114.934C242.522 115.838 242.333 116.807 242.333 117.786V118.958C242.333 120.13 241.877 121.253 241.064 122.081C240.251 122.91 239.149 123.375 238 123.375C236.851 123.375 235.749 122.91 234.936 122.081C234.123 121.253 233.667 120.13 233.667 118.958V117.786C233.667 115.809 232.895 113.912 231.526 112.517L230.339 111.309Z" stroke="white" stroke-width="2" stroke-linecap="round" stroke-linejoin="round"/>
<g clip-path="url(#clip3_23_412)">
<path d="M84.8746 25.125L88.4996 23.3125L101.187 10.625L99.3746 8.8125L86.6871 21.5L84.8746 25.125ZM82.1921 31.5557C81.2967 29.6653 80.3324 28.7029 78.442 27.8057L81.2477 20.0808L84.8727 17.875L95.7477 7H90.3102L79.4352 17.875L73.9977 36L92.1227 30.5625L102.998 19.6875V14.25L92.1227 25.125L89.9169 28.75L82.1921 31.5557Z" fill="white"/>
</g>
<path d="M525.791 171.366L527.962 176.4H517.6V168.75H521.095C522.134 168.75 523.146 169.003 523.989 169.472C524.832 169.942 525.462 170.605 525.791 171.366ZM529.061 178.95L529.071 178.976L529.949 179.144L530.351 179.22C531.422 179.427 532.373 179.905 533.053 180.578C533.732 181.251 534.101 182.08 534.1 182.933V187.238C534.1 187.646 533.935 188.028 533.648 188.339C533.057 187.017 531.921 185.882 530.413 185.109C528.906 184.336 527.111 183.966 525.306 184.059C523.5 184.151 521.784 184.699 520.421 185.619C519.059 186.539 518.125 187.78 517.765 189.15H504.235C503.875 187.78 502.941 186.539 501.579 185.619C500.216 184.699 498.5 184.151 496.694 184.059C494.889 183.966 493.094 184.336 491.587 185.109C490.079 185.882 488.943 187.017 488.352 188.339C488.057 188.017 487.899 187.632 487.9 187.238V184.144C487.9 183.301 488.26 182.481 488.925 181.813C489.59 181.144 490.522 180.664 491.576 180.447L498.843 178.95H529.061ZM501.522 176.4L505.608 170.719C506.036 170.123 506.663 169.626 507.423 169.28C508.183 168.934 509.049 168.751 509.931 168.75H514.3V176.4H501.522ZM484.6 187.238C484.6 189.04 485.986 190.593 487.976 191.297C488.24 192.789 489.179 194.161 490.627 195.169C492.075 196.177 493.938 196.756 495.885 196.804C497.833 196.853 499.74 196.367 501.268 195.432C502.797 194.498 503.848 193.176 504.235 191.7H517.765C518.152 193.176 519.203 194.498 520.732 195.432C522.26 196.367 524.167 196.853 526.115 196.804C528.062 196.756 529.925 196.177 531.373 195.169C532.821 194.161 533.76 192.789 534.024 191.297C535.031 190.942 535.885 190.37 536.483 189.65C537.082 188.931 537.4 188.093 537.4 187.238V182.933C537.4 181.578 536.841 180.258 535.805 179.165C534.768 178.072 533.307 177.262 531.635 176.854L528.919 170.558C528.372 169.29 527.322 168.186 525.918 167.404C524.515 166.622 522.828 166.201 521.098 166.2H509.934C508.462 166.199 507.016 166.503 505.747 167.08C504.478 167.656 503.432 168.485 502.717 169.479L497.635 176.561L490.728 177.984C488.971 178.345 487.417 179.145 486.309 180.259C485.201 181.373 484.6 182.739 484.6 184.144V187.238ZM525.85 186.6C527.163 186.6 528.422 187.003 529.35 187.72C530.278 188.438 530.8 189.411 530.8 190.425C530.8 191.439 530.278 192.412 529.35 193.13C528.422 193.847 527.163 194.25 525.85 194.25C524.537 194.25 523.278 193.847 522.35 193.13C521.422 192.412 520.9 191.439 520.9 190.425C520.9 189.411 521.422 188.438 522.35 187.72C523.278 187.003 524.537 186.6 525.85 186.6ZM496.15 186.6C497.463 186.6 498.722 187.003 499.65 187.72C500.578 188.438 501.1 189.411 501.1 190.425C501.1 191.439 500.578 192.412 499.65 193.13C498.722 193.847 497.463 194.25 496.15 194.25C494.837 194.25 493.578 193.847 492.65 193.13C491.722 192.412 491.2 191.439 491.2 190.425C491.2 189.411 491.722 188.438 492.65 187.72C493.578 187.003 494.837 186.6 496.15 186.6Z" fill="white"/>
<path d="M506.375 105.854V104.5V103.128L510.455 100.136C511.207 99.5802 511.701 98.8196 511.848 97.9884C511.996 97.1572 511.789 96.309 511.263 95.5937L506.248 88.4687C505.875 87.9277 505.339 87.4783 504.694 87.1657C504.049 86.853 503.317 86.6881 502.571 86.6875C502.109 86.6845 501.65 86.7447 501.211 86.8656L496.048 88.3262C495.156 87.8296 494.226 87.3833 493.264 86.9903L492.18 82.5015C491.986 81.6814 491.453 80.9448 490.676 80.4205C489.9 79.8962 488.927 79.6177 487.93 79.6337H477.985C476.988 79.6177 476.016 79.8962 475.239 80.4205C474.462 80.9448 473.929 81.6814 473.735 82.5015L472.651 86.9903C471.682 87.3832 470.745 87.8295 469.846 88.3262L464.789 86.7943C464.345 86.6975 463.886 86.6614 463.429 86.6875C462.683 86.6881 461.951 86.853 461.306 87.1657C460.661 87.4783 460.125 87.9277 459.753 88.4687L454.738 95.5937C454.242 96.308 454.057 97.1446 454.216 97.9602C454.375 98.7759 454.867 99.5198 455.609 100.065L459.625 103.146V105.872L455.609 108.864C454.846 109.413 454.341 110.17 454.181 111.001C454.022 111.833 454.219 112.685 454.738 113.406L459.753 120.531C460.125 121.072 460.661 121.522 461.306 121.834C461.951 122.147 462.683 122.312 463.429 122.312C463.891 122.315 464.35 122.255 464.789 122.134L469.953 120.674C470.844 121.17 471.774 121.617 472.736 122.01L473.82 126.498C474.014 127.318 474.547 128.055 475.324 128.579C476.101 129.104 477.073 129.382 478.07 129.366H488.1C489.097 129.382 490.07 129.104 490.846 128.579C491.623 128.055 492.156 127.318 492.35 126.498L493.434 122.01C494.403 121.617 495.34 121.17 496.239 120.674L501.381 122.134C501.82 122.255 502.279 122.315 502.741 122.312C503.487 122.312 504.219 122.147 504.864 121.834C505.509 121.522 506.045 121.072 506.418 120.531L511.263 113.406C511.759 112.692 511.943 111.855 511.784 111.04C511.625 110.224 511.133 109.48 510.391 108.935L506.375 105.854ZM502.571 118.75L495.283 116.684C493.576 117.895 491.626 118.842 489.524 119.48L488.015 125.875H477.985L476.476 119.552C474.39 118.895 472.451 117.95 470.739 116.755L463.429 118.75L458.414 111.625L464.194 107.35C463.801 105.506 463.801 103.618 464.194 101.775L458.414 97.375L463.429 90.25L470.718 92.3162C472.424 91.1048 474.374 90.1578 476.476 89.5196L477.985 83.125H488.015L489.524 89.4484C491.61 90.1047 493.549 91.05 495.261 92.245L502.571 90.25L507.586 97.375L501.806 101.65C502.199 103.494 502.199 105.381 501.806 107.225L507.586 111.625L502.571 118.75Z" fill="white"/>
<path d="M483 115.188C480.478 115.188 478.013 114.561 475.916 113.386C473.82 112.212 472.186 110.543 471.221 108.59C470.256 106.637 470.003 104.488 470.495 102.415C470.987 100.342 472.201 98.4375 473.984 96.9428C475.768 95.4481 478.039 94.4302 480.513 94.0179C482.986 93.6055 485.549 93.8171 487.879 94.626C490.209 95.435 492.2 96.8048 493.601 98.5623C495.002 100.32 495.75 102.386 495.75 104.5C495.767 105.907 495.449 107.304 494.814 108.607C494.179 109.91 493.241 111.094 492.054 112.089C490.866 113.084 489.454 113.871 487.899 114.403C486.345 114.935 484.679 115.202 483 115.188ZM483 97.375C481.877 97.3531 480.76 97.5224 479.716 97.8727C478.673 98.223 477.726 98.747 476.931 99.413C476.137 100.079 475.512 100.873 475.094 101.748C474.676 102.622 474.474 103.558 474.5 104.5C474.474 105.442 474.676 106.378 475.094 107.252C475.512 108.127 476.137 108.921 476.931 109.587C477.726 110.253 478.673 110.777 479.716 111.127C480.76 111.478 481.877 111.647 483 111.625C484.123 111.647 485.24 111.478 486.284 111.127C487.327 110.777 488.274 110.253 489.069 109.587C489.863 108.921 490.488 108.127 490.906 107.252C491.324 106.378 491.526 105.442 491.5 104.5C491.526 103.558 491.324 102.622 490.906 101.748C490.488 100.873 489.863 100.079 489.069 99.413C488.274 98.747 487.327 98.223 486.284 97.8727C485.24 97.5224 484.123 97.3531 483 97.375Z" fill="white"/>
<path d="M535.97 68.766C536.932 68.766 537.712 68.2341 537.712 67.578C537.712 66.9219 536.932 66.39 535.97 66.39C535.008 66.39 534.228 66.9219 534.228 67.578C534.228 68.2341 535.008 68.766 535.97 68.766Z" fill="white"/>
<path d="M587 61.669L586.346 61.285C586.296 61.256 581.299 58.291 580.057 54.693L579.78 53.896L579.268 54.565C579.252 54.586 578.542 55.464 576.555 56.494C575.084 48.121 570.08 38.125 563.504 33.863C565.384 34.015 567.27 33.859 569.09 33.197C570.186 32.799 569.713 31.013 568.607 31.417C567.115 31.96 565.62 32.108 564.128 32.032C567.791 28.675 570.667 23.53 570.667 19.768C570.667 18.864 570.667 17.181 569.327 17.181C568.789 17.181 568.354 17.517 567.753 17.981C566.831 18.692 565.439 19.768 563.394 19.768C562.615 19.768 561.189 18.946 560.043 18.286C558.658 17.489 557.773 17 557.029 17C555.797 17 553.986 17.996 552.388 18.875C551.738 19.232 550.849 19.722 550.665 19.769C548.349 19.769 547.004 18.701 546.112 17.994C545.592 17.58 545.215 17.28 544.712 17.28C543.394 17.28 543.394 18.861 543.394 20.692C543.394 24.226 546.086 28.891 549.611 32.026C547.39 32.185 545.2 32.856 543.661 34.347C542.811 35.169 544.099 36.473 544.946 35.653C546.225 34.413 547.902 33.882 549.696 33.779C549.747 33.962 549.809 34.142 549.885 34.319C542.369 39.72 537.03 52.545 537.03 61.203C537.03 62.057 537.096 62.83 537.198 63.558C535.26 62.697 534.553 61.942 534.539 61.925L534.023 61.33L533.769 62.08C532.646 65.384 527.764 68.25 527.715 68.279L527 68.694L527.727 69.087C527.982 69.225 528.235 69.346 528.49 69.477L528.03 69.796L528.273 72.836L547.326 77L554.55 72.379C555.279 72.383 556.017 72.385 556.768 72.385L565.212 77L584.301 71V67.791L583.796 67.488C584.048 67.328 584.3 67.165 584.551 66.997L585.22 66.55L585.073 66.478L585.924 66.245L586.068 62.909L585.576 62.56C585.838 62.403 586.099 62.243 586.361 62.077L587 61.669ZM545.213 20.692C545.213 20.248 545.219 19.902 545.228 19.633C545.381 19.753 545.559 19.884 545.749 20.019C546.332 21.415 547.435 23.425 549.305 24.691C551.577 26.231 551.275 24.461 552.487 22.845C553.699 21.23 554.519 20.384 556.549 24.538C557.434 26.349 558.909 21.288 560.311 20.549C560.682 20.751 561.052 20.939 561.415 21.099C563.929 25.187 565.094 23.912 567.327 20.514C567.941 20.154 568.445 19.768 568.846 19.459C568.848 19.552 568.85 19.655 568.85 19.77C568.85 22.98 566.227 27.584 563.015 30.587C562.863 30.2016 562.646 29.8453 562.373 29.534C561.076 28.065 559.049 29.694 558.088 30.763C556.383 30.215 553.605 28.706 551.795 29.57C551.344 29.7791 550.93 30.0597 550.569 30.401C547.609 27.703 545.213 23.808 545.213 20.692ZM561.417 31.666C560.969 31.5709 560.523 31.4642 560.08 31.346C560.638 30.865 561.15 30.697 561.365 31.412C561.388 31.49 561.402 31.579 561.417 31.666ZM553.817 32.287C553.486 32.224 553.146 32.167 552.796 32.122C552.531 31.9557 552.271 31.7806 552.017 31.597C552.931 30.984 554.507 31.31 556.013 31.821C555.27 31.896 554.537 32.058 553.817 32.287ZM554.271 34.927C553.711 35.067 553.101 35.011 552.574 34.801C552.788 34.688 553.004 34.59 553.22 34.491C553.57 34.66 553.92 34.801 554.271 34.927ZM535.774 71.379C533.389 70.6883 531.075 69.7732 528.862 68.646C530.219 67.754 533.175 65.597 534.377 63.005C535.201 63.652 537.103 64.832 540.807 65.738C540.744 65.84 540.667 65.949 540.593 66.056C537.431 65.228 535.633 64.181 535.604 64.163L535.168 63.903L534.959 64.37C534.684 64.982 534.039 65.074 533.68 65.074C533.58 65.074 533.513 65.067 533.504 65.066L533.147 65.014L533.017 65.356C532.751 66.054 531.659 66.966 531.259 67.259L530.591 67.749L531.355 68.062C531.639 68.178 531.716 68.285 531.72 68.313C531.73 68.382 531.609 68.564 531.48 68.669L530.898 69.138L531.575 69.451C532.962 70.091 534.533 70.621 536.104 71.058C535.979 71.181 535.871 71.286 535.774 71.379ZM543.838 67.653C545.236 67.849 546.785 67.973 548.477 67.973H548.478C548.83 67.973 549.187 67.967 549.551 67.956C549.575 68.0315 549.61 68.1031 549.654 68.169C549.743 68.304 549.863 68.416 550.015 68.503L547.463 70.684C547.414 70.6819 547.366 70.6809 547.317 70.681C546.18 70.681 545.332 71.099 544.925 71.843C543.383 71.6463 541.848 71.3972 540.323 71.096C541.549 70.0051 542.722 68.8561 543.838 67.653ZM532.489 68.85C532.589 68.661 532.654 68.432 532.619 68.182C532.586 67.9565 532.478 67.7487 532.312 67.592C532.761 67.207 533.38 66.613 533.72 65.998C534.493 65.987 535.131 65.694 535.533 65.176C536.21 65.53 537.735 66.245 539.988 66.865C539.067 68.02 537.826 69.33 536.861 70.304C535.357 69.906 533.842 69.426 532.489 68.85ZM546.74 73.059L546.535 73.06C545.674 73.06 542.821 72.99 539.052 72.205C539.184 72.093 539.321 71.978 539.448 71.868C542.506 72.507 544.972 72.781 545.157 72.802L545.523 72.841L545.636 72.486C545.883 71.72 546.794 71.607 547.316 71.607C547.459 71.607 547.554 71.616 547.565 71.617L547.759 71.638L552.192 67.85L551.007 67.811C550.611 67.797 550.444 67.708 550.403 67.647L550.654 66.99L549.96 67.019C549.454 67.041 548.96 67.052 548.477 67.052H548.476C547.08 67.052 545.785 66.96 544.588 66.815L544.866 66.487C547.282 66.81 550.175 67.009 553.668 66.984C552.834 68.154 550.754 70.641 546.74 73.059ZM556.764 68.714V70.539C556.195 70.539 555.641 70.537 555.099 70.533L554.936 68.479L553.582 68.589C554.494 67.511 554.883 66.792 554.918 66.727L555.285 66.033L554.51 66.047C547.092 66.183 542.254 65.299 539.2 64.317C538.977 63.415 538.848 62.395 538.848 61.204C538.848 53.081 544.039 40.803 550.931 35.827C552.152 37.008 554.004 37.525 555.764 36.376C556.15 36.124 556.486 35.794 556.801 35.443C556.876 35.445 556.953 35.462 557.029 35.462C557.281 35.462 557.537 35.441 557.792 35.409C558.115 35.538 558.431 35.668 558.724 35.797C560.127 36.415 561.325 36.031 562.143 35.179C568.456 38.999 573.514 49.104 574.845 57.272C571.959 58.426 567.381 59.552 560.355 59.75C561.741 58.958 562.781 57.626 562.407 55.876C562.014 54.026 560.468 53.506 558.867 53.421C558.863 52.552 558.863 51.685 558.869 50.816C559.36 51.033 559.831 51.283 560.259 51.55C561.015 52.025 561.699 50.794 560.948 50.319C560.297 49.9096 559.602 49.5745 558.876 49.32C558.886 48.314 558.891 47.31 558.891 46.306C558.892 45.386 557.525 45.386 557.525 46.306C557.525 47.189 557.519 48.071 557.511 48.952C556.783 48.8252 556.04 48.8127 555.309 48.915C555.19 48.2531 555.046 47.5959 554.877 46.945C554.651 46.059 553.331 46.434 553.56 47.323C553.728 47.962 553.865 48.598 553.978 49.243C553.92 49.265 553.857 49.276 553.8 49.302C551.948 50.035 550.818 51.904 552.173 53.647C552.804 54.459 553.629 54.787 554.532 54.896C554.581 56.099 554.612 57.303 554.647 58.505C554.042 58.112 553.491 57.608 552.992 57.075C552.374 56.423 551.409 57.43 552.026 58.081C552.865 58.974 553.746 59.649 554.701 60.081C554.744 61.108 554.805 62.138 554.905 63.16C554.993 64.067 556.361 64.072 556.272 63.16C556.188 62.276 556.125 61.3901 556.085 60.503C556.605 60.593 557.151 60.616 557.731 60.561C557.796 61.507 557.872 62.453 557.98 63.399C558.042 63.941 558.56 64.154 558.942 64.044L558.857 66.008C558.255 66.062 557.641 66.112 557.001 66.154L556.239 66.204L556.645 66.86C556.686 66.926 557.147 67.655 558.176 68.716H556.764V68.714ZM581.652 62.132C580.395 62.723 578.805 63.265 577.185 63.738C576.189 62.709 574.915 61.336 573.964 60.118C576.083 59.476 577.269 58.814 577.804 58.457C578.227 58.83 578.787 59.024 579.45 59.023C579.67 59.023 579.865 59.002 580.015 58.978C580.495 59.6 581.269 60.318 581.753 60.747C581.524 60.982 581.413 61.242 581.422 61.523C581.43 61.763 581.526 61.967 581.652 62.132ZM574.497 65.418C574.701 65.598 574.912 65.782 575.127 65.968C571.073 67.043 568.056 67.16 567.399 67.171C563.201 64.61 561.025 61.9 560.186 60.68C563.699 60.592 566.603 60.274 569.025 59.836C569.123 59.957 569.223 60.077 569.324 60.196C567.377 60.4992 565.415 60.6938 563.447 60.779L562.64 60.813L563.084 61.492C563.083 61.493 562.993 61.661 562.397 61.777L561.428 61.966L566.192 65.823L566.414 65.763C566.419 65.762 566.839 65.649 567.347 65.649C568.08 65.649 568.581 65.872 568.833 66.308L568.993 66.584L569.304 66.529C571.046 66.2114 572.778 65.8409 574.497 65.418ZM560.4 62.479L559.262 62.417C559.209 61.849 559.156 61.281 559.116 60.713C559.316 61.045 559.726 61.669 560.4 62.479ZM558.992 58.818C558.926 57.4719 558.887 56.1246 558.873 54.777C559.037 54.783 559.199 54.798 559.353 54.82C561.121 55.088 561.583 57.054 560.203 58.16C559.843 58.445 559.428 58.654 558.992 58.818ZM569.431 65.57C568.983 65.017 568.27 64.727 567.348 64.727C566.963 64.727 566.624 64.779 566.41 64.821L563.415 62.394C563.664 62.251 563.832 62.07 563.924 61.848C563.947 61.7928 563.964 61.7355 563.976 61.677C566.35 61.547 568.35 61.31 570.041 61.02C570.861 61.935 572.066 63.197 573.664 64.664C571.701 65.131 570.064 65.451 569.431 65.57ZM557.505 54.813C557.524 56.262 557.56 57.715 557.637 59.163C557.508 59.183 557.381 59.208 557.254 59.221C556.824 59.27 556.416 59.234 556.028 59.136C555.979 57.736 555.947 56.333 555.894 54.932C556.432 54.907 556.977 54.854 557.505 54.813ZM555.825 53.548C555.763 52.4492 555.659 51.3531 555.515 50.262C556.178 50.1709 556.852 50.2052 557.502 50.363C557.495 51.3853 557.493 52.4077 557.497 53.43C557.058 53.454 556.641 53.496 556.274 53.529C556.125 53.5407 555.975 53.547 555.825 53.548ZM554.453 53.373C554.368 53.35 554.284 53.332 554.197 53.303C553.797 53.1674 553.435 52.9388 553.14 52.636C552.286 51.839 553.458 51.057 554.197 50.686C554.313 51.576 554.393 52.474 554.453 53.373ZM565.49 72.839C561.149 70.621 558.82 68.156 557.895 67.014C558.56 66.964 559.189 66.904 559.812 66.841L566.93 71.461L582.54 67.173C574.49 72.025 566.537 72.764 565.49 72.839ZM578.382 64.949C578.254 64.821 578.101 64.669 577.92 64.486C579.696 63.948 581.414 63.324 582.695 62.638L583.474 62.219L582.684 61.817C582.507 61.726 582.334 61.559 582.331 61.496C582.333 61.472 582.403 61.344 582.706 61.17L583.284 60.838L582.77 60.41C582.754 60.397 581.151 59.066 580.588 58.209L580.402 57.929L580.083 58.022C580.08 58.022 579.806 58.101 579.45 58.101C578.9 58.102 578.488 57.922 578.224 57.568L577.932 57.181L577.566 57.496C577.547 57.512 576.414 58.441 573.375 59.319C573.275 59.1748 573.179 59.0281 573.086 58.879C576.771 57.762 578.654 56.41 579.47 55.67C580.78 58.504 583.899 60.787 585.253 61.682C583.078 62.9983 580.776 64.0928 578.382 64.949Z" fill="white"/>
<path d="M569.38 62.117C568.383 61.846 567.258 62.031 566.864 62.526C566.473 63.023 566.967 63.649 567.963 63.922C568.961 64.193 570.085 64.007 570.479 63.511C570.87 63.014 570.378 62.39 569.38 62.117Z" fill="white"/>
<path d="M514.48 14.2625C515.333 14.2625 516.037 14.49 516.592 14.945C517.147 15.4 517.424 15.9775 517.424 16.6775V37.3625C517.424 38.0275 517.147 38.5875 516.592 39.0425C516.037 39.4975 515.333 39.7425 514.48 39.7775H499.632V48.2825L487.792 39.7775H472.944C472.133 39.7775 471.451 39.5325 470.896 39.0425C470.341 38.5525 470.043 37.9925 470 37.3625V16.6775C470 15.9775 470.299 15.4 470.896 14.945C471.493 14.49 472.176 14.2625 472.944 14.2625H514.48Z" fill="white"/>
<path d="M564.47 109.84C563.509 108.89 562.245 108.307 560.899 108.192C559.553 108.077 558.208 108.437 557.1 109.21C560.663 110.693 563.573 113.409 565.3 116.86C565.967 115.766 566.247 114.479 566.097 113.207C565.946 111.934 565.373 110.749 564.47 109.84Z" fill="white"/>
<path d="M544.42 109.43C543.316 108.553 541.93 108.111 540.522 108.187C539.115 108.262 537.784 108.85 536.78 109.84C535.785 110.842 535.195 112.177 535.125 113.587C535.055 114.998 535.509 116.384 536.4 117.48C538.005 113.91 540.856 111.048 544.42 109.43Z" fill="white"/>
<path d="M549.4 110.09C546.789 110.395 544.317 111.429 542.266 113.073C540.215 114.718 538.669 116.906 537.804 119.389C536.939 121.871 536.79 124.546 537.375 127.109C537.96 129.672 539.254 132.018 541.11 133.88L538.56 136.43C538.467 136.525 538.394 136.636 538.345 136.759C538.296 136.882 538.271 137.013 538.272 137.146C538.274 137.278 538.301 137.409 538.353 137.53C538.405 137.652 538.48 137.762 538.575 137.855C538.67 137.948 538.781 138.021 538.904 138.07C539.027 138.119 539.158 138.144 539.291 138.143C539.423 138.141 539.554 138.114 539.675 138.062C539.797 138.01 539.907 137.935 540 137.84L542.66 135.18C545.093 137.021 548.063 138.01 551.114 137.996C554.164 137.981 557.125 136.964 559.54 135.1L562.28 137.84C562.471 138.004 562.717 138.089 562.969 138.08C563.221 138.07 563.459 137.966 563.638 137.788C563.816 137.609 563.92 137.371 563.93 137.119C563.939 136.867 563.854 136.621 563.69 136.43L561 133.78C563.019 131.712 564.348 129.07 564.806 126.217C565.263 123.364 564.827 120.439 563.556 117.844C562.285 115.248 560.242 113.11 557.708 111.722C555.173 110.333 552.271 109.763 549.4 110.09ZM552.58 135.9C550.095 136.226 547.57 135.765 545.36 134.582C543.15 133.399 541.365 131.554 540.257 129.306C539.149 127.057 538.774 124.518 539.182 122.045C539.591 119.572 540.764 117.289 542.536 115.516C544.309 113.744 546.592 112.571 549.065 112.162C551.538 111.753 554.077 112.129 556.326 113.237C558.574 114.345 560.419 116.13 561.602 118.34C562.785 120.55 563.246 123.075 562.92 125.56C562.577 128.182 561.377 130.617 559.507 132.487C557.637 134.357 555.202 135.557 552.58 135.9Z" fill="white"/>
<path d="M557.92 126.34L551.86 123.34V115.5C551.86 115.261 551.765 115.032 551.596 114.864C551.428 114.695 551.199 114.6 550.96 114.6C550.721 114.6 550.492 114.695 550.324 114.864C550.155 115.032 550.06 115.261 550.06 115.5V124.5L557.12 128C557.335 128.105 557.582 128.12 557.808 128.042C558.034 127.964 558.22 127.8 558.325 127.585C558.43 127.37 558.445 127.123 558.367 126.897C558.289 126.671 558.125 126.485 557.91 126.38L557.92 126.34Z" fill="white"/>
<path d="M456.906 51.5469C456.903 48.8602 456.119 46.2343 454.651 43.9987C453.183 41.763 451.098 40.0173 448.656 38.9807V35.8438C448.657 33.2154 447.772 30.666 446.148 28.619C444.524 26.5721 442.258 25.1508 439.729 24.5915C437.199 24.0321 434.557 24.3683 432.241 25.5442C429.926 26.72 428.076 28.6648 427 31.0553C425.924 28.6648 424.074 26.72 421.759 25.5442C419.443 24.3683 416.801 24.0321 414.271 24.5915C411.741 25.1508 409.476 26.5721 407.852 28.619C406.228 30.666 405.343 33.2154 405.344 35.8438V38.9807C402.901 40.0144 400.813 41.759 399.345 43.9948C397.877 46.2306 397.094 48.8574 397.094 51.5444C397.094 54.2313 397.877 56.8582 399.345 59.094C400.813 61.3297 402.901 63.0744 405.344 64.1081V65.1562C405.343 67.7846 406.228 70.334 407.852 72.381C409.476 74.4279 411.741 75.8492 414.271 76.4085C416.801 76.9679 419.443 76.6317 421.759 75.4558C424.074 74.28 425.924 72.3352 427 69.9447C428.076 72.3352 429.926 74.28 432.241 75.4558C434.557 76.6317 437.199 76.9679 439.729 76.4085C442.258 75.8492 444.524 74.4279 446.148 72.381C447.772 70.334 448.657 67.7846 448.656 65.1562V64.1081C451.098 63.0725 453.183 61.3278 454.651 59.093C456.119 56.8582 456.903 54.2329 456.906 51.5469ZM416.687 74.5781C414.227 74.5753 411.868 73.5818 410.128 71.8155C408.388 70.0491 407.409 67.6542 407.406 65.1562V64.7864C408.42 65.0315 409.458 65.1556 410.5 65.1562H412.562C412.836 65.1562 413.098 65.046 413.292 64.8496C413.485 64.6533 413.594 64.387 413.594 64.1094C413.594 63.8317 413.485 63.5654 413.292 63.3691C413.098 63.1728 412.836 63.0625 412.562 63.0625H410.5C407.824 63.062 405.234 62.1012 403.188 60.35C401.142 58.5987 399.772 56.1697 399.32 53.4922C398.867 50.8147 399.362 48.0609 400.716 45.7176C402.069 43.3743 404.196 41.5923 406.719 40.6863C406.92 40.6141 407.094 40.4804 407.217 40.3036C407.34 40.1268 407.406 39.9156 407.406 39.6991L407.406 35.8438C407.406 33.3449 408.384 30.9484 410.125 29.1815C411.865 27.4145 414.226 26.4219 416.687 26.4219C419.149 26.4219 421.51 27.4145 423.25 29.1815C424.991 30.9484 425.969 33.3449 425.969 35.8438V58.5473C424.924 57.0326 423.535 55.7959 421.919 54.9418C420.304 54.0876 418.509 53.6413 416.687 53.6406C416.414 53.6406 416.152 53.7509 415.958 53.9472C415.765 54.1436 415.656 54.4098 415.656 54.6875C415.656 54.9651 415.765 55.2314 415.958 55.4278C416.152 55.6241 416.414 55.7344 416.687 55.7344C419.149 55.7344 421.51 56.727 423.25 58.494C424.991 60.2609 425.969 62.6574 425.969 65.1562C425.969 67.6551 424.991 70.0516 423.25 71.8185C421.51 73.5855 419.149 74.5781 416.687 74.5781ZM443.5 63.0625H441.437C441.164 63.0625 440.902 63.1728 440.708 63.3691C440.515 63.5654 440.406 63.8317 440.406 64.1094C440.406 64.387 440.515 64.6533 440.708 64.8496C440.902 65.046 441.164 65.1562 441.437 65.1562H443.5C444.542 65.1556 445.58 65.0315 446.594 64.7864V65.1562C446.594 67.0197 446.049 68.8413 445.03 70.3908C444.01 71.9402 442.56 73.1478 440.864 73.8609C439.168 74.574 437.302 74.7606 435.502 74.3971C433.701 74.0335 432.048 73.1362 430.75 71.8185C429.452 70.5008 428.568 68.822 428.21 66.9944C427.851 65.1667 428.035 63.2723 428.738 61.5507C429.44 59.829 430.63 58.3575 432.156 57.3222C433.682 56.287 435.477 55.7344 437.312 55.7344C437.586 55.7344 437.848 55.6241 438.042 55.4278C438.235 55.2314 438.344 54.9651 438.344 54.6875C438.344 54.4098 438.235 54.1436 438.042 53.9472C437.848 53.7509 437.586 53.6406 437.312 53.6406C435.491 53.6413 433.696 54.0876 432.081 54.9418C430.465 55.7959 429.076 57.0326 428.031 58.5473V35.8438C428.031 33.3449 429.009 30.9484 430.75 29.1815C432.49 27.4145 434.851 26.4219 437.312 26.4219C439.774 26.4219 442.135 27.4145 443.875 29.1815C445.616 30.9484 446.594 33.3449 446.594 35.8438L446.594 39.6991C446.594 39.9157 446.66 40.1269 446.783 40.3037C446.906 40.4805 447.08 40.6142 447.282 40.6863C449.805 41.5923 451.931 43.3743 453.285 45.7177C454.639 48.061 455.133 50.8148 454.681 53.4923C454.228 56.1699 452.858 58.5989 450.812 60.3501C448.766 62.1013 446.176 63.062 443.5 63.0625ZM417.719 41.0781C417.716 43.2985 416.846 45.4273 415.3 46.9974C413.753 48.5675 411.656 49.4506 409.469 49.4531C409.195 49.4531 408.933 49.3428 408.74 49.1465C408.546 48.9502 408.437 48.6839 408.437 48.4062C408.437 48.1286 408.546 47.8623 408.74 47.666C408.933 47.4697 409.195 47.3594 409.469 47.3594C411.109 47.3575 412.682 46.6951 413.842 45.5176C415.002 44.34 415.654 42.7434 415.656 41.0781V38.9844C415.656 38.7067 415.765 38.4404 415.958 38.2441C416.152 38.0478 416.414 37.9375 416.687 37.9375C416.961 37.9375 417.223 38.0478 417.417 38.2441C417.61 38.4404 417.719 38.7067 417.719 38.9844V41.0781ZM445.562 48.4062C445.562 48.6839 445.454 48.9502 445.26 49.1465C445.067 49.3428 444.805 49.4531 444.531 49.4531C442.344 49.4506 440.247 48.5675 438.7 46.9974C437.154 45.4273 436.284 43.2985 436.281 41.0781V38.9844C436.281 38.7067 436.39 38.4404 436.583 38.2441C436.777 38.0478 437.039 37.9375 437.312 37.9375C437.586 37.9375 437.848 38.0478 438.042 38.2441C438.235 38.4404 438.344 38.7067 438.344 38.9844V41.0781C438.346 42.7434 438.998 44.34 440.158 45.5176C441.318 46.6951 442.891 47.3575 444.531 47.3594C444.805 47.3594 445.067 47.4697 445.26 47.666C445.454 47.8623 445.562 48.1286 445.562 48.4062Z" fill="white"/>
<defs>
<clipPath id="clip0_23_412">
<rect width="30" height="30" fill="white" transform="translate(205 10)"/>
</clipPath>
<clipPath id="clip1_23_412">
<rect width="24" height="24" fill="white" transform="translate(272 108)"/>
</clipPath>
<clipPath id="clip2_23_412">
<rect width="38" height="45" fill="white" transform="translate(309 52)"/>
</clipPath>
<clipPath id="clip3_23_412">
<rect width="29" height="29" fill="white" transform="translate(74 7)"/>
</clipPath>
</defs>
</svg>
