<svg width="40" height="40" viewBox="0 0 40 40" fill="none" xmlns="http://www.w3.org/2000/svg">
<path d="M20.03 19.8981H19.97C17.588 19.8981 15.49 19.292 14.248 20.434C13.9106 20.7339 13.6418 21.1029 13.4599 21.5161C13.278 21.9292 13.1873 22.3767 13.194 22.828C13.194 26.532 16.16 26.9881 19.972 26.9881H20.03C23.84 26.9881 26.808 26.53 26.808 22.828C26.808 21.942 26.496 21.116 25.754 20.434C24.51 19.292 22.412 19.8981 20.03 19.8981ZM16.786 24.96C16.06 24.96 15.474 24.144 15.474 23.14C15.474 22.136 16.06 21.324 16.786 21.324C17.512 21.324 18.1 22.136 18.1 23.14C18.102 24.144 17.514 24.96 16.786 24.96ZM23.212 24.96C22.486 24.96 21.898 24.144 21.898 23.14C21.898 22.136 22.486 21.324 23.212 21.324C23.936 21.324 24.524 22.136 24.524 23.14C24.526 24.144 23.938 24.96 23.212 24.96ZM20 0.800049C9.39602 0.800049 0.800018 9.39605 0.800018 20C0.800018 30.604 9.39602 39.2001 20 39.2001C30.604 39.2001 39.2 30.604 39.2 20C39.2 9.39605 30.604 0.800049 20 0.800049ZM21.752 27.878C21.408 27.878 20.724 27.878 20 27.882C19.276 27.878 18.592 27.878 18.248 27.878C16.728 27.878 10.704 27.76 10.704 20.5C10.704 18.8321 11.276 17.61 12.214 16.59C12.066 16.222 12.058 14.126 12.854 12.118C12.854 12.118 14.686 12.318 17.456 14.22C18.034 14.058 19.018 13.976 20 13.976C20.982 13.976 21.964 14.058 22.546 14.218C25.316 12.316 27.148 12.116 27.148 12.116C27.944 14.124 27.938 16.222 27.788 16.588C28.726 17.608 29.298 18.83 29.298 20.498C29.296 27.762 23.272 27.878 21.752 27.878Z" fill="white"/>
</svg>
