<svg width="606" height="217" viewBox="0 0 606 217" fill="none" xmlns="http://www.w3.org/2000/svg">
<rect width="606" height="217" transform="matrix(-1 0 0 1 606 0)" fill="#1E2126"/>
<path d="M496.562 49.4141H502.141L503.47 45.6012C503.561 45.3403 503.73 45.1147 503.951 44.9554C504.173 44.7961 504.437 44.7107 504.708 44.7109H517.292C517.846 44.7109 518.342 45.0679 518.526 45.6012L519.859 49.4141H525.438C527.25 49.4141 528.719 50.9174 528.719 52.7734V71.9219C528.719 73.7779 527.25 75.2812 525.438 75.2812H496.562C494.75 75.2812 493.281 73.7779 493.281 71.9219V52.7734C493.281 50.9174 494.75 49.4141 496.562 49.4141ZM496.234 71.9219C496.234 72.1066 496.382 72.2578 496.562 72.2578H525.438C525.618 72.2578 525.766 72.1066 525.766 71.9219V52.7734C525.766 52.5887 525.618 52.4375 525.438 52.4375H517.78L517.079 50.4303L516.139 47.7344H505.865L504.926 50.4303L504.224 52.4375H496.562C496.382 52.4375 496.234 52.5887 496.234 52.7734V71.9219ZM511 55.125C514.626 55.125 517.562 58.1316 517.562 61.8438C517.562 65.5559 514.626 68.5625 511 68.5625C507.374 68.5625 504.438 65.5559 504.438 61.8438C504.438 58.1316 507.374 55.125 511 55.125ZM511 65.875C513.174 65.875 514.938 64.0693 514.938 61.8438C514.938 59.6182 513.174 57.8125 511 57.8125C508.826 57.8125 507.062 59.6182 507.062 61.8438C507.062 64.0693 508.826 65.875 511 65.875Z" fill="white"/>
<path d="M469.828 9.125V5.625C469.828 5.50897 469.777 5.39769 469.686 5.31564C469.595 5.23359 469.472 5.1875 469.344 5.1875C469.215 5.1875 469.092 5.23359 469.001 5.31564C468.91 5.39769 468.859 5.50897 468.859 5.625V9.125C468.859 9.24103 468.91 9.35231 469.001 9.43436C469.092 9.51641 469.215 9.5625 469.344 9.5625C469.472 9.5625 469.595 9.51641 469.686 9.43436C469.777 9.35231 469.828 9.24103 469.828 9.125ZM465.469 9.5625C465.34 9.5625 465.217 9.51641 465.126 9.43436C465.035 9.35231 464.984 9.24103 464.984 9.125V5.625C464.984 5.50897 465.035 5.39769 465.126 5.31564C465.217 5.23359 465.34 5.1875 465.469 5.1875C465.597 5.1875 465.72 5.23359 465.811 5.31564C465.902 5.39769 465.953 5.50897 465.953 5.625V9.125C465.953 9.24103 465.902 9.35231 465.811 9.43436C465.72 9.51641 465.597 9.5625 465.469 9.5625ZM461.594 9.5625C461.465 9.5625 461.342 9.51641 461.251 9.43436C461.16 9.35231 461.109 9.24103 461.109 9.125V5.625C461.109 5.50897 461.16 5.39769 461.251 5.31564C461.342 5.23359 461.465 5.1875 461.594 5.1875C461.722 5.1875 461.845 5.23359 461.936 5.31564C462.027 5.39769 462.078 5.50897 462.078 5.625V9.125C462.078 9.24103 462.027 9.35231 461.936 9.43436C461.845 9.51641 461.722 9.5625 461.594 9.5625ZM450.453 16.125V17C450.454 18.0439 450.914 19.0448 451.731 19.783C452.549 20.5211 453.657 20.9363 454.812 20.9375H454.862C455.621 23.0726 457.145 24.9193 459.192 26.1875H454.812C454.684 26.1875 454.561 26.2336 454.47 26.3156C454.379 26.3977 454.328 26.509 454.328 26.625C454.328 26.741 454.379 26.8523 454.47 26.9344C454.561 27.0164 454.684 27.0625 454.812 27.0625H461.018C461.02 27.0625 461.022 27.063 461.024 27.063C461.027 27.063 461.03 27.0625 461.032 27.0625H476.125C476.253 27.0625 476.377 27.0164 476.468 26.9344C476.558 26.8523 476.609 26.741 476.609 26.625C476.609 26.509 476.558 26.3977 476.468 26.3156C476.377 26.2336 476.253 26.1875 476.125 26.1875H471.745C473.241 25.2621 474.466 24.0218 475.314 22.5737C476.161 21.1255 476.606 19.513 476.609 17.875V12.625C476.609 12.509 476.558 12.3977 476.468 12.3156C476.377 12.2336 476.253 12.1875 476.125 12.1875H454.812C453.657 12.1887 452.549 12.6039 451.731 13.342C450.914 14.0802 450.454 15.0811 450.453 16.125ZM455.696 20.4132C455.696 20.4103 455.694 20.4077 455.694 20.405C455.431 19.5826 455.297 18.7309 455.297 17.875V13.0625H475.641V17.875C475.637 19.6171 475.087 21.3226 474.054 22.7938C473.02 24.265 471.547 25.4417 469.804 26.1875H461.134C459.826 25.6279 458.665 24.8237 457.728 23.8282C456.79 22.8327 456.098 21.6687 455.696 20.4132ZM451.422 16.125C451.423 15.3889 451.717 14.6777 452.251 14.1212C452.784 13.5648 453.522 13.2003 454.328 13.0942V17.875C454.328 18.6085 454.418 19.3397 454.595 20.0555C453.736 20.0048 452.93 19.6609 452.341 19.0936C451.751 18.5263 451.423 17.7779 451.422 17V16.125Z" fill="white"/>
<path d="M363 67.375H303L307.979 29.3863C308.016 26.1971 307.931 24.431 307.931 24.431C308.707 24.6588 309.862 24.7465 311.245 24.7465C311.479 24.7465 311.724 24.7427 311.973 24.7379C311.978 22.7468 311.934 21.625 311.934 21.625C313.135 23.1309 315.699 23.5141 318.622 23.5141C321.657 23.5141 325.078 23.1014 327.766 23.1014C331.913 23.1014 332.799 25.7463 332.991 26.8834C333.183 25.7415 334.073 23.1081 338.211 23.1081C340.899 23.1081 344.318 23.5208 347.352 23.5208C350.278 23.5208 352.842 23.1376 354.043 21.6298C354.043 21.6298 353.999 22.7506 354.005 24.737C354.252 24.7408 354.498 24.7455 354.733 24.7455C356.118 24.7455 357.27 24.6578 358.046 24.43C358.046 24.43 357.965 26.118 357.996 29.1823L363 67.375ZM311.245 26.5212C310.74 26.5212 310.277 26.5098 309.852 26.4878C309.904 31.6662 309.673 45.8125 306.363 64.1172C306.976 64.0235 307.587 63.9177 308.196 63.7998C307.804 63.6445 307.493 63.4329 307.283 63.1479C311.077 47.8302 311.84 33.6696 311.954 26.5117C311.714 26.5164 311.475 26.5212 311.245 26.5212ZM327.376 25.5433C325.345 25.5433 322.627 25.7711 319.752 26.0122C317.744 26.1809 315.693 26.3506 313.822 26.4459C313.707 33.4943 312.976 47.3241 309.415 62.291C309.684 62.3339 310.057 62.3673 310.571 62.3673C312.471 62.3673 315.193 61.9069 317.825 61.4609C320.789 60.9595 323.853 60.4401 326.353 60.4401C328.291 60.4401 329.817 60.787 331.02 61.3179C331.066 61.336 331.119 61.3493 331.162 61.3684L331.169 27.9985C331.134 27.5277 330.786 25.5433 327.376 25.5433ZM352.152 26.4459C350.281 26.3506 348.232 26.1809 346.225 26.0122C343.349 25.772 340.631 25.5433 338.598 25.5433C335.299 25.5433 334.858 27.3809 334.807 28.0376L334.816 61.3675C334.895 61.3341 334.989 61.3074 335.072 61.276C336.26 60.7718 337.746 60.442 339.627 60.442C342.127 60.442 345.191 60.9624 348.154 61.4637C350.788 61.9107 353.509 62.3711 355.409 62.3711C355.923 62.3711 356.297 62.3377 356.562 62.2958C353 47.327 352.269 33.4924 352.152 26.4459ZM356.123 26.4878C355.697 26.5098 355.235 26.5212 354.73 26.5212C354.5 26.5212 354.26 26.5164 354.02 26.5126C354.135 33.6687 354.899 47.8331 358.695 63.1536C358.486 63.4367 358.178 63.6483 357.791 63.8027C358.412 63.9209 359.023 64.0286 359.617 64.1182C356.304 45.8125 356.072 31.6662 356.123 26.4878Z" fill="white"/>
<path d="M339.803 27.2638C337.237 27.2638 336.391 27.8185 336.382 27.8242L336.144 27.5269L335.901 27.2362C336 27.1656 336.95 26.5347 339.776 26.5347C341.903 26.5347 344.529 27.0484 346.859 27.5002C348.557 27.8319 350.028 28.1188 350.87 28.1188L350.939 28.8603C350.012 28.8603 348.498 28.5639 346.749 28.2207C344.449 27.7718 341.855 27.2638 339.803 27.2638Z" fill="white"/>
<path d="M339.937 31C337.321 31 336.456 31.5766 336.448 31.5824L336.206 31.2755L335.958 30.9724C336.059 30.8952 337.027 30.2404 339.909 30.2404C342.078 30.2404 344.756 30.7722 347.132 31.2459C348.865 31.5881 350.365 31.8874 351.223 31.8874L351.296 32.6603C350.35 32.6603 348.807 32.3515 347.022 31.997C344.678 31.529 342.029 31 339.937 31Z" fill="white"/>
<path d="M340.076 34.8887C337.407 34.8887 336.527 35.4863 336.517 35.4939L336.27 35.1737L336.016 34.8601C336.12 34.7801 337.109 34.0986 340.048 34.0986C342.26 34.0986 344.992 34.6523 347.417 35.1441C349.186 35.5016 350.718 35.8132 351.592 35.8132L351.669 36.6158C350.703 36.6158 349.127 36.2955 347.307 35.9257C344.914 35.4368 342.212 34.8887 340.076 34.8887Z" fill="white"/>
<path d="M340.223 38.9357C337.5 38.9357 336.601 39.5609 336.59 39.5667L336.338 39.234L336.08 38.9042C336.185 38.8232 337.194 38.1122 340.192 38.1122C342.45 38.1122 345.24 38.6888 347.715 39.2026C349.521 39.5752 351.083 39.8974 351.978 39.8974L352.056 40.7361C351.072 40.7361 349.46 40.4016 347.602 40.0156C345.158 39.5076 342.402 38.9357 340.223 38.9357Z" fill="white"/>
<path d="M340.374 43.1532C337.594 43.1532 336.675 43.8051 336.667 43.8118L336.407 43.4639L336.143 43.1208C336.252 43.036 337.281 42.2963 340.343 42.2963C342.647 42.2963 345.496 42.8968 348.024 43.4305C349.87 43.8185 351.465 44.1568 352.379 44.1568L352.46 45.0308C351.455 45.0308 349.811 44.682 347.911 44.2779C345.416 43.7489 342.602 43.1532 340.374 43.1532Z" fill="white"/>
<path d="M340.533 47.5519C337.693 47.5519 336.755 48.2306 336.746 48.2382L336.482 47.876L336.211 47.5186C336.321 47.4299 337.372 46.6579 340.499 46.6579C342.853 46.6579 345.765 47.2851 348.347 47.8417C350.234 48.2477 351.865 48.5994 352.798 48.5994L352.883 49.5097C351.855 49.5097 350.173 49.1465 348.233 48.7271C345.683 48.1734 342.806 47.5519 340.533 47.5519Z" fill="white"/>
<path d="M340.697 52.144C337.795 52.144 336.838 52.8551 336.828 52.8627L336.558 52.4834L336.283 52.1097C336.395 52.0163 337.469 51.2109 340.665 51.2109C343.07 51.2109 346.045 51.8667 348.686 52.4462C350.613 52.8703 352.282 53.2392 353.234 53.2392L353.324 54.1923C352.273 54.1923 350.554 53.8111 348.57 53.3717C345.962 52.7941 343.021 52.144 340.697 52.144Z" fill="white"/>
<path d="M340.872 56.9431C337.902 56.9431 336.925 57.6837 336.915 57.6913L336.639 57.2948L336.356 56.9059C336.472 56.8087 337.568 55.9661 340.835 55.9661C343.295 55.9661 346.338 56.6505 349.039 57.2586C351.01 57.7027 352.717 58.084 353.691 58.084L353.784 59.0809C352.711 59.0809 350.953 58.6844 348.923 58.226C346.254 57.6227 343.246 56.9431 340.872 56.9431Z" fill="white"/>
<path d="M329.594 27.8242C329.586 27.8185 328.74 27.2638 326.174 27.2638C324.12 27.2638 321.527 27.7718 319.228 28.2207C317.479 28.5639 315.965 28.8603 315.039 28.8603L315.108 28.1188C315.95 28.1188 317.421 27.8319 319.119 27.5002C321.447 27.0484 324.074 26.5347 326.201 26.5347C329.025 26.5347 329.977 27.1656 330.077 27.2362L329.833 27.5269L329.594 27.8242Z" fill="white"/>
<path d="M326.066 30.2411C328.949 30.2411 329.918 30.8959 330.017 30.9731L329.769 31.2762L329.528 31.5831C329.519 31.5784 328.655 31.0008 326.038 31.0008C323.946 31.0008 321.299 31.5288 318.955 31.9968C317.171 32.3523 315.627 32.6602 314.681 32.6602L314.754 31.8872C315.61 31.8872 317.111 31.5889 318.844 31.2457C321.219 30.773 323.897 30.2411 326.066 30.2411Z" fill="white"/>
<path d="M325.928 34.0986C328.867 34.0986 329.856 34.7801 329.959 34.8601L329.706 35.1737L329.459 35.4939C329.45 35.4873 328.568 34.8887 325.9 34.8887C323.763 34.8887 321.064 35.4368 318.67 35.9248C316.85 36.2946 315.273 36.6148 314.309 36.6148L314.384 35.8123C315.259 35.8123 316.79 35.5006 318.56 35.1432C320.982 34.6514 323.716 34.0986 325.928 34.0986Z" fill="white"/>
<path d="M325.784 38.1122C328.784 38.1122 329.793 38.8223 329.896 38.9042L329.639 39.234L329.386 39.5667C329.376 39.5609 328.478 38.9357 325.754 38.9357C323.574 38.9357 320.817 39.5076 318.372 40.0146C316.514 40.4006 314.904 40.7352 313.919 40.7352L314 39.8974C314.894 39.8974 316.456 39.5752 318.262 39.2026C320.736 38.6888 323.526 38.1122 325.784 38.1122Z" fill="white"/>
<path d="M325.635 42.2963C328.698 42.2963 329.725 43.036 329.832 43.1208L329.568 43.4639L329.311 43.8118C329.3 43.8051 328.384 43.1532 325.602 43.1532C323.376 43.1532 320.56 43.7489 318.066 44.2779C316.166 44.682 314.521 45.0308 313.515 45.0308L313.597 44.1568C314.511 44.1568 316.107 43.8185 317.951 43.4305C320.479 42.8968 323.328 42.2963 325.635 42.2963Z" fill="white"/>
<path d="M325.479 46.6579C328.606 46.6579 329.656 47.4309 329.767 47.5186L329.496 47.876L329.232 48.2382C329.224 48.2306 328.286 47.5519 325.446 47.5519C323.174 47.5519 320.296 48.1734 317.745 48.7262C315.805 49.1456 314.124 49.5087 313.096 49.5087L313.182 48.5985C314.114 48.5985 315.745 48.2468 317.629 47.8407C320.212 47.2851 323.123 46.6579 325.479 46.6579Z" fill="white"/>
<path d="M325.313 51.2099C328.509 51.2099 329.582 52.0162 329.695 52.1087L329.421 52.4823L329.15 52.8617C329.141 52.854 328.183 52.143 325.28 52.143C322.957 52.143 320.015 52.794 317.408 53.3697C315.424 53.8091 313.704 54.1903 312.654 54.1903L312.745 53.2372C313.698 53.2372 315.366 52.8683 317.291 52.4442C319.933 51.8656 322.908 51.2099 325.313 51.2099Z" fill="white"/>
<path d="M325.143 55.965C328.411 55.965 329.508 56.8085 329.623 56.9048L329.342 57.2937L329.066 57.6902C329.055 57.6826 328.076 56.942 325.109 56.942C322.732 56.942 319.724 57.6216 317.057 58.2249C315.028 58.6833 313.269 59.0798 312.194 59.0798L312.289 58.0829C313.263 58.0829 314.97 57.7016 316.94 57.2575C319.641 56.6494 322.685 55.965 325.143 55.965Z" fill="white"/>
<g clip-path="url(#clip0_27_498)">
<path d="M371.482 10.2006C371.308 10.3151 371.173 10.4788 371.092 10.6707C371.012 10.8626 370.991 11.0741 371.032 11.2781L371.03 11.2718L375.313 36.9718C375.339 37.1286 375.401 37.2774 375.493 37.4072C375.584 37.537 375.704 37.6445 375.843 37.7218L375.848 37.7243C376.003 37.8122 376.178 37.8583 376.355 37.8581H376.368C376.508 37.8549 376.646 37.8257 376.775 37.7718L376.768 37.7743L385.585 34.1743L390.572 39.6456C390.664 39.7556 390.78 39.844 390.91 39.9047C391.041 39.9653 391.183 39.9968 391.327 39.9968H391.359H391.358H391.39C391.513 39.9969 391.635 39.9731 391.749 39.9268L391.743 39.9293C391.946 39.8562 392.12 39.72 392.24 39.5406L392.243 39.5368C392.363 39.359 392.427 39.149 392.427 38.9343V31.3656L400.327 28.1368C400.52 28.0716 400.688 27.948 400.808 27.7833C400.927 27.6185 400.993 27.4205 400.995 27.2168C401.019 27.0184 400.981 26.8174 400.887 26.6412C400.792 26.4651 400.646 26.3221 400.468 26.2318L400.463 26.2293L372.619 10.1668C372.45 10.0506 372.249 9.99118 372.044 9.99725C371.839 10.0033 371.641 10.0745 371.479 10.2006L371.482 10.1993V10.2006ZM377.204 35.2818L373.504 13.1456L397.499 26.9831L391.877 29.2756L377.438 18.5843L385.438 31.9193L377.204 35.2818Z" fill="white"/>
</g>
<path fill-rule="evenodd" clip-rule="evenodd" d="M288 117C288.265 117 288.52 117.105 288.707 117.293C288.895 117.48 289 117.735 289 118V149C289 149.265 288.895 149.52 288.707 149.707C288.52 149.895 288.265 150 288 150H266C265.735 150 265.48 149.895 265.293 149.707C265.105 149.52 265 149.265 265 149V118C265 117.735 265.105 117.48 265.293 117.293C265.48 117.105 265.735 117 266 117H271.583V115H266C265.204 115 264.441 115.316 263.879 115.879C263.316 116.441 263 117.204 263 118V149C263 149.796 263.316 150.559 263.879 151.121C264.441 151.684 265.204 152 266 152H288C288.796 152 289.559 151.684 290.121 151.121C290.684 150.559 291 149.796 291 149V118C291 117.204 290.684 116.441 290.121 115.879C289.559 115.316 288.796 115 288 115H282.417V117H288Z" fill="white"/>
<path fill-rule="evenodd" clip-rule="evenodd" d="M284 115C284 114.204 283.684 113.441 283.121 112.879C282.559 112.316 281.796 112 281 112H273C272.204 112 271.441 112.316 270.879 112.879C270.316 113.441 270 114.204 270 115V117C270 117.796 270.316 118.559 270.879 119.121C271.441 119.684 272.204 120 273 120H281C281.796 120 282.559 119.684 283.121 119.121C283.684 118.559 284 117.796 284 117V115ZM281 114C281.265 114 281.52 114.105 281.707 114.293C281.895 114.48 282 114.735 282 115V117C282 117.265 281.895 117.52 281.707 117.707C281.52 117.895 281.265 118 281 118H273C272.735 118 272.48 117.895 272.293 117.707C272.105 117.52 272 117.265 272 117V115C272 114.735 272.105 114.48 272.293 114.293C272.48 114.105 272.735 114 273 114H281Z" fill="white"/>
<path fill-rule="evenodd" clip-rule="evenodd" d="M286 129C286 128.735 285.895 128.48 285.707 128.293C285.52 128.105 285.265 128 285 128H278C277.735 128 277.48 128.105 277.293 128.293C277.105 128.48 277 128.735 277 129C277 129.265 277.105 129.52 277.293 129.707C277.48 129.895 277.735 130 278 130H285C285.265 130 285.52 129.895 285.707 129.707C285.895 129.52 286 129.265 286 129Z" fill="white"/>
<path fill-rule="evenodd" clip-rule="evenodd" d="M286 124C286 123.735 285.895 123.48 285.707 123.293C285.52 123.105 285.265 123 285 123H269.5C269.235 123 268.98 123.105 268.793 123.293C268.605 123.48 268.5 123.735 268.5 124C268.5 124.265 268.605 124.52 268.793 124.707C268.98 124.895 269.235 125 269.5 125H285C285.265 125 285.52 124.895 285.707 124.707C285.895 124.52 286 124.265 286 124Z" fill="white"/>
<path fill-rule="evenodd" clip-rule="evenodd" d="M284 137V139H282V137H284ZM285 135C285.265 135 285.52 135.105 285.707 135.293C285.895 135.48 286 135.735 286 136V140C286 140.265 285.895 140.52 285.707 140.707C285.52 140.895 285.265 141 285 141H281C280.735 141 280.48 140.895 280.293 140.707C280.105 140.52 280 140.265 280 140V136C280 135.735 280.105 135.48 280.293 135.293C280.48 135.105 280.735 135 281 135H285Z" fill="white"/>
<path fill-rule="evenodd" clip-rule="evenodd" d="M273 137C272.865 137.006 272.73 136.985 272.604 136.938C272.477 136.89 272.362 136.818 272.264 136.724C272.166 136.631 272.088 136.519 272.035 136.395C271.982 136.271 271.954 136.137 271.954 136.002C271.954 135.867 271.981 135.733 272.034 135.609C272.087 135.485 272.165 135.372 272.262 135.279C272.36 135.186 272.475 135.113 272.602 135.065C272.728 135.018 272.863 134.996 272.998 135.002C273.255 135.013 273.498 135.123 273.676 135.309C273.854 135.495 273.954 135.743 273.954 136C273.955 136.258 273.855 136.505 273.678 136.691C273.5 136.878 273.257 136.988 273 137ZM273 139C272.204 139 271.441 138.684 270.879 138.121C270.316 137.559 270 136.796 270 136C270 135.204 270.316 134.441 270.879 133.879C271.441 133.316 272.204 133 273 133C273.796 133 274.559 133.316 275.121 133.879C275.684 134.441 276 135.204 276 136C276 136.796 275.684 137.559 275.121 138.121C274.559 138.684 273.796 139 273 139Z" fill="white"/>
<path fill-rule="evenodd" clip-rule="evenodd" d="M277 143.28C276.983 143.26 276.964 143.24 276.945 143.221C276.781 143.061 276.465 142.849 275.969 142.638C274.969 142.213 273.735 142 273 142C272.265 142 271.031 142.213 270.031 142.638C269.535 142.848 269.219 143.061 269.055 143.221C269.036 143.24 269.017 143.259 269 143.279V145H277V143.28ZM273 140C275.003 140 279 141.066 279 143.182V147H267V143.182C267 141.066 270.997 140 273 140Z" fill="white"/>
<g clip-path="url(#clip1_27_498)">
<path d="M321 111L317 117L322 128M328 111H316L312 117L322 129L332 117L328 111ZM332 117H312H332ZM323 111L327 117L322 128L323 111Z" stroke="white" stroke-width="2"/>
</g>
<path d="M207.979 120.465L220.604 132.174L224.889 130.522L225.272 130.882L219.817 134.254L216.178 139.311L215.793 138.954L217.572 134.981L204.947 123.276L195.029 136.562L194.547 136.12L201.163 119.766L191.08 110.42C190.699 110.043 190.492 109.544 190.501 109.028C190.51 108.511 190.735 108.019 191.129 107.654C191.522 107.289 192.054 107.08 192.61 107.071C193.167 107.063 193.706 107.256 194.112 107.609L204.195 116.956L221.827 110.824L222.309 111.268L207.979 120.465ZM195.627 142.741L205.55 129.454L212.516 135.914L210.736 139.887L216.845 145.55L222.907 137.12L232 131.498L225.89 125.833L221.607 127.482L214.641 121.022L228.97 111.825L222.907 106.204L205.272 112.335L197.144 104.797C196.549 104.233 195.84 103.783 195.057 103.475C194.274 103.166 193.432 103.005 192.581 103C191.73 102.995 190.887 103.147 190.1 103.447C189.313 103.747 188.597 104.189 187.996 104.746C187.394 105.304 186.918 105.967 186.594 106.697C186.271 107.427 186.107 108.209 186.112 108.998C186.118 109.787 186.291 110.568 186.624 111.294C186.957 112.02 187.442 112.678 188.05 113.229L196.179 120.767L189.565 137.12L195.629 142.741H195.627Z" fill="white"/>
<path d="M148.5 160H153.625C154.25 157.7 156.75 156 159.75 156C162.75 156 165.25 157.7 165.875 160H183.5V162H165.875C165.25 164.3 162.75 166 159.75 166C156.75 166 154.25 164.3 153.625 162H148.5V160ZM159.75 164C161.875 164 163.5 162.7 163.5 161C163.5 159.3 161.875 158 159.75 158C157.625 158 156 159.3 156 161C156 162.7 157.625 164 159.75 164Z" fill="white"/>
<path d="M183.5 176H178.375C177.75 178.3 175.25 180 172.25 180C169.25 180 166.75 178.3 166.125 176H148.5V174H166.125C166.75 171.7 169.25 170 172.25 170C175.25 170 177.75 171.7 178.375 174H183.5V176ZM172.25 172C170.125 172 168.5 173.3 168.5 175C168.5 176.7 170.125 178 172.25 178C174.375 178 176 176.7 176 175C176 173.3 174.375 172 172.25 172Z" fill="white"/>
<path d="M249.583 19H252.417V20.5C252.417 20.8978 252.267 21.2794 252.002 21.5607C251.736 21.842 251.376 22 251 22C250.624 22 250.264 21.842 249.998 21.5607C249.733 21.2794 249.583 20.8978 249.583 20.5V19Z" fill="white"/>
<path fill-rule="evenodd" clip-rule="evenodd" d="M259.5 13V16H258.083V20.5C258.083 22.4891 257.337 24.3968 256.009 25.8033C254.68 27.2098 252.879 28 251 28C252.879 28 254.68 28.7902 256.009 30.1967C257.337 31.6032 258.083 33.5109 258.083 35.5V40H259.5V43H242.5V40H243.917V35.5C243.917 33.5109 244.663 31.6032 245.991 30.1967C247.32 28.7902 249.121 28 251 28C250.07 28 249.149 27.806 248.289 27.4291C247.43 27.0522 246.649 26.4997 245.991 25.8033C245.334 25.1069 244.812 24.2801 244.456 23.3701C244.1 22.4602 243.917 21.4849 243.917 20.5V16H242.5V13H259.5ZM255.25 16H246.75V20.5C246.75 21.6935 247.198 22.8381 247.995 23.682C248.792 24.5259 249.873 25 251 25C252.127 25 253.208 24.5259 254.005 23.682C254.802 22.8381 255.25 21.6935 255.25 20.5V16ZM255.25 35.5V40H246.75V35.5C246.75 34.3065 247.198 33.1619 247.995 32.318C248.792 31.4741 249.873 31 251 31C252.127 31 253.208 31.4741 254.005 32.318C254.802 33.1619 255.25 34.3065 255.25 35.5Z" fill="white"/>
<path d="M243.15 73.6L237.859 61V68C228.823 68 227.781 81.5492 228.032 89C228.411 85.241 228.588 79.2 237.859 79.2V86.2L243.15 73.6Z" stroke="white" stroke-width="2" stroke-linecap="round" stroke-linejoin="round"/>
<path d="M434.351 28.5581C436.394 28.5581 438.476 29.3419 440.036 30.9019L457.437 48.3056L467.692 52.23L468.687 52.6406L468.864 53.6962L471.5 71.3306L471.852 73.8487L469.331 73.5L451.692 70.8637L450.639 70.6875L450.228 69.6919L446.536 59.9644L445.599 59.0869L428.724 42.2119C425.699 39.1856 425.641 34.3294 428.489 31.1944L428.724 30.9019C429.46 30.1589 430.336 29.5692 431.302 29.1669C432.267 28.7646 433.303 28.5577 434.349 28.5581H434.351ZM434.351 32.25C433.297 32.25 432.241 32.7187 431.364 33.5981C429.605 35.355 429.605 37.8169 431.364 39.5737L440.797 49.0069L446.774 43.0312L437.339 33.5981C436.462 32.7187 435.406 32.25 434.352 32.25H434.351ZM449.469 45.7275L443.491 51.7031L446.891 55.1025L452.868 49.125L449.469 45.7275ZM455.739 51.645H455.681L449.643 57.6787L453.337 67.3481L464.292 68.9287L459.254 63.8906C459.151 63.8981 459.063 63.9487 458.962 63.9487C457.306 63.9487 455.913 62.6175 455.913 60.9619C455.913 59.3062 457.306 57.915 458.962 57.915C460.616 57.915 461.949 59.3062 461.949 60.9619C461.949 61.0631 461.898 61.1512 461.891 61.2544L466.931 66.2925L465.348 55.3369L455.739 51.645Z" fill="white"/>
<path d="M578 33.41V43H568.41L570.41 41H576V35.41L578 33.41Z" fill="white"/>
<path d="M552.13 48.29L555 45.38V48H583V43.85H581V42.25H583V35.6H581V34H583V27.6H581V26H583V20.41L567.06 36.26V33.44L583.29 17.29C583.43 17.149 583.609 17.0528 583.803 17.0137C583.998 16.9747 584.2 16.9945 584.383 17.0706C584.567 17.1468 584.724 17.2759 584.833 17.4414C584.943 17.6069 585.001 17.8014 585 18V49C585 49.2652 584.895 49.5196 584.707 49.7071C584.52 49.8947 584.265 50 584 50H552.84C552.641 50.0012 552.447 49.9432 552.281 49.8334C552.116 49.7235 551.987 49.5669 551.911 49.3835C551.834 49.2001 551.815 48.9981 551.854 48.8033C551.893 48.6086 551.989 48.4299 552.13 48.29Z" fill="white"/>
<path d="M563 46H559C558.47 46 557.961 45.7893 557.586 45.4142C557.211 45.0391 557 44.5304 557 44V24.7L559.3 20.47C559.478 20.1618 559.735 19.9067 560.044 19.7309C560.354 19.5551 560.704 19.465 561.06 19.47C561.424 19.4729 561.78 19.575 562.09 19.7653C562.4 19.9556 562.653 20.2269 562.82 20.55L565 24.72V44C565 44.5304 564.789 45.0391 564.414 45.4142C564.039 45.7893 563.53 46 563 46ZM563 25.2L561.06 21.43L559 25.21V40H563V25.2ZM563 41.63H559V44.07H563V41.63Z" fill="white"/>
<path d="M387.534 57.317L389.317 55.533C390.94 53.9115 393.14 53.0006 395.434 53.0006C397.728 53.0006 399.928 53.9115 401.551 55.533L437.581 91.565L444.722 110.237C445.56 112.447 444.441 113.56 442.238 112.718L423.563 105.584L387.534 69.551C384.153 66.175 384.157 60.698 387.534 57.317ZM410.163 66.803L407.655 69.31L432.419 94.076L434.927 91.567L410.163 66.803ZM406.329 70.637L402.634 74.333L427.397 99.098L431.092 95.403L406.329 70.637ZM435.974 108.32L440.316 103.974L436.115 93.033L425.036 104.11L435.974 108.32ZM423.563 102.933L426.069 100.424L401.307 75.659L398.799 78.168L423.563 102.933ZM397.354 76.723L408.719 65.36L405.892 62.532L394.527 73.895L397.354 76.723Z" fill="white"/>
<g clip-path="url(#clip2_27_498)">
<path d="M297 96.2673C297 96.4538 296.937 96.6327 296.826 96.7645C296.715 96.8964 296.564 96.9705 296.406 96.9705H259.462C259.383 96.9712 259.306 96.9532 259.233 96.9174C259.161 96.8817 259.095 96.8289 259.04 96.7623L259.037 96.7595C259.033 96.7553 259.033 96.7469 259.028 96.7426C258.969 96.6636 258.926 96.5699 258.901 96.4684C258.893 96.4361 258.89 96.4052 258.885 96.3714C258.88 96.3362 258.867 96.3053 258.867 96.2687C258.867 96.2125 258.884 96.1633 258.894 96.1112C258.898 96.0916 258.891 96.0719 258.897 96.0522L262.649 82.3905C262.678 82.2847 262.727 82.1887 262.794 82.1106L283.121 58.0384C283.142 57.9991 283.157 57.9569 283.186 57.9217L287.626 52.6637C287.973 52.2537 288.444 52.0234 288.934 52.0234C289.424 52.0234 289.895 52.2537 290.242 52.6637L296.459 60.0255C296.808 60.4389 297 60.9887 297 61.5737C297 62.1587 296.808 62.71 296.459 63.1234L292.117 68.2647C292.096 68.3027 292.081 68.3462 292.053 68.38L271.758 92.5745C271.689 92.6586 271.602 92.72 271.507 92.7531L263.535 95.5656H296.406C296.484 95.5654 296.561 95.5835 296.633 95.6186C296.705 95.6538 296.771 95.7055 296.826 95.7706C296.881 95.8358 296.925 95.9132 296.955 95.9985C296.985 96.0837 297 96.1751 297 96.2673V96.2673ZM289.445 66.2889L270.817 88.0661L271.502 90.8814L290.793 67.885L289.445 66.2889ZM269.906 87.1562L288.607 65.2961L285.713 61.8691L267.18 83.8741V87.1562H269.906ZM266.44 82.7617L284.873 60.8748L283.639 59.4137L264.389 82.2105L266.44 82.7617ZM269.702 88.5625H266.586C266.428 88.5625 266.277 88.4884 266.166 88.3566C266.055 88.2247 265.992 88.0458 265.992 87.8594V84.0836L263.609 83.4423L260.375 95.2127L270.455 91.6562L269.702 88.5625ZM295.812 61.5737C295.812 61.3642 295.744 61.1687 295.619 61.0197L289.402 53.658C289.278 53.5112 289.11 53.4288 288.934 53.4288C288.758 53.4288 288.59 53.5112 288.465 53.658L284.461 58.3998L291.614 66.8697L295.618 62.1278C295.68 62.0555 295.729 61.9692 295.762 61.8741C295.796 61.7789 295.813 61.6768 295.812 61.5737Z" fill="white"/>
</g>
<path d="M373.063 114.542H362.939H373.063ZM368 83.625V85.8333V83.625ZM354.211 89.4462L355.743 91.0075L354.211 89.4462ZM348.5 103.5H350.667H348.5ZM385.333 103.5H387.5H385.333ZM380.257 91.0075L381.789 89.4462L380.257 91.0075ZM375.661 111.309C377.176 109.764 378.208 107.797 378.625 105.655C379.043 103.513 378.828 101.293 378.008 99.2759C377.188 97.2585 375.8 95.5342 374.018 94.321C372.237 93.1079 370.143 92.4604 368 92.4604C365.857 92.4604 363.763 93.1079 361.982 94.321C360.2 95.5342 358.812 97.2585 357.992 99.2759C357.172 101.293 356.957 103.513 357.375 105.655C357.792 107.797 358.824 109.764 360.339 111.309L361.526 112.517C362.205 113.209 362.743 114.03 363.111 114.934C363.478 115.838 363.667 116.807 363.667 117.786V118.958C363.667 120.13 364.123 121.253 364.936 122.081C365.749 122.91 366.851 123.375 368 123.375C369.149 123.375 370.251 122.91 371.064 122.081C371.877 121.253 372.333 120.13 372.333 118.958V117.786C372.333 115.809 373.105 113.912 374.474 112.517L375.661 111.309Z" stroke="white" stroke-width="2" stroke-linecap="round" stroke-linejoin="round"/>
<g clip-path="url(#clip3_27_498)">
<path d="M521.125 25.125L517.5 23.3125L504.813 10.625L506.625 8.8125L519.313 21.5L521.125 25.125ZM523.808 31.5557C524.703 29.6653 525.668 28.7029 527.558 27.8057L524.752 20.0808L521.127 17.875L510.252 7H515.69L526.565 17.875L532.002 36L513.877 30.5625L503.002 19.6875V14.25L513.877 25.125L516.083 28.75L523.808 31.5557Z" fill="white"/>
</g>
<path d="M80.2094 171.366L78.038 176.4H88.4V168.75H84.9053C83.8663 168.75 82.8536 169.003 82.0108 169.472C81.168 169.942 80.5377 170.605 80.2094 171.366ZM76.9391 178.95L76.9292 178.976L76.0514 179.144L75.6488 179.22C74.5775 179.427 73.6266 179.905 72.9473 180.578C72.2681 181.251 71.8994 182.08 71.9 182.933V187.238C71.9 187.646 72.065 188.028 72.3521 188.339C72.9427 187.017 74.0792 185.882 75.5866 185.109C77.094 184.336 78.8887 183.966 80.6942 184.059C82.4998 184.151 84.216 184.699 85.5786 185.619C86.9412 186.539 87.8746 187.78 88.235 189.15H101.765C102.125 187.78 103.059 186.539 104.421 185.619C105.784 184.699 107.5 184.151 109.306 184.059C111.111 183.966 112.906 184.336 114.413 185.109C115.921 185.882 117.057 187.017 117.648 188.339C117.943 188.017 118.101 187.632 118.1 187.238V184.144C118.1 183.301 117.74 182.481 117.075 181.813C116.41 181.144 115.478 180.664 114.424 180.447L107.157 178.95H76.9391ZM104.478 176.4L100.392 170.719C99.964 170.123 99.3375 169.626 98.5774 169.28C97.8174 168.934 96.9514 168.751 96.0692 168.75H91.7V176.4H104.478ZM121.4 187.238C121.4 189.04 120.014 190.593 118.024 191.297C117.76 192.789 116.821 194.161 115.373 195.169C113.925 196.177 112.062 196.756 110.115 196.804C108.167 196.853 106.26 196.367 104.732 195.432C103.203 194.498 102.152 193.176 101.765 191.7H88.235C87.8476 193.176 86.7966 194.498 85.2683 195.432C83.74 196.367 81.833 196.853 79.8853 196.804C77.9375 196.756 76.0748 196.177 74.6271 195.169C73.1794 194.161 72.2402 192.789 71.9759 191.297C70.9688 190.942 70.1151 190.37 69.5166 189.65C68.9181 188.931 68.5999 188.093 68.6 187.238V182.933C68.5999 181.578 69.1588 180.258 70.1955 179.165C71.2322 178.072 72.6927 177.262 74.3651 176.854L77.081 170.558C77.6285 169.29 78.6783 168.186 80.0818 167.404C81.4854 166.622 83.1716 166.201 84.902 166.2H96.0659C97.5381 166.199 98.9837 166.503 100.253 167.08C101.522 167.656 102.568 168.485 103.283 169.479L108.365 176.561L115.272 177.984C117.029 178.345 118.583 179.145 119.691 180.259C120.799 181.373 121.4 182.739 121.4 184.144V187.238ZM80.15 186.6C78.8372 186.6 77.5781 187.003 76.6498 187.72C75.7215 188.438 75.2 189.411 75.2 190.425C75.2 191.439 75.7215 192.412 76.6498 193.13C77.5781 193.847 78.8372 194.25 80.15 194.25C81.4628 194.25 82.7219 193.847 83.6502 193.13C84.5785 192.412 85.1 191.439 85.1 190.425C85.1 189.411 84.5785 188.438 83.6502 187.72C82.7219 187.003 81.4628 186.6 80.15 186.6ZM109.85 186.6C108.537 186.6 107.278 187.003 106.35 187.72C105.422 188.438 104.9 189.411 104.9 190.425C104.9 191.439 105.422 192.412 106.35 193.13C107.278 193.847 108.537 194.25 109.85 194.25C111.163 194.25 112.422 193.847 113.35 193.13C114.278 192.412 114.8 191.439 114.8 190.425C114.8 189.411 114.278 188.438 113.35 187.72C112.422 187.003 111.163 186.6 109.85 186.6Z" fill="white"/>
<path d="M99.625 105.854V104.5V103.128L95.545 100.136C94.7929 99.5802 94.2994 98.8196 94.1516 97.9884C94.0038 97.1572 94.2114 96.309 94.7375 95.5937L99.7525 88.4687C100.125 87.9277 100.661 87.4783 101.306 87.1657C101.951 86.853 102.683 86.6881 103.429 86.6875C103.891 86.6845 104.35 86.7447 104.789 86.8656L109.952 88.3262C110.844 87.8296 111.774 87.3833 112.736 86.9903L113.82 82.5015C114.014 81.6814 114.547 80.9448 115.324 80.4205C116.101 79.8962 117.073 79.6177 118.07 79.6337H128.015C129.012 79.6177 129.984 79.8962 130.761 80.4205C131.538 80.9448 132.071 81.6814 132.265 82.5015L133.349 86.9903C134.318 87.3832 135.255 87.8295 136.154 88.3262L141.211 86.7943C141.655 86.6975 142.114 86.6614 142.571 86.6875C143.317 86.6881 144.049 86.853 144.694 87.1657C145.339 87.4783 145.875 87.9277 146.247 88.4687L151.262 95.5937C151.758 96.308 151.943 97.1446 151.784 97.9602C151.625 98.7759 151.133 99.5198 150.391 100.065L146.375 103.146V105.872L150.391 108.864C151.154 109.413 151.659 110.17 151.819 111.001C151.978 111.833 151.781 112.685 151.262 113.406L146.247 120.531C145.875 121.072 145.339 121.522 144.694 121.834C144.049 122.147 143.317 122.312 142.571 122.312C142.109 122.315 141.65 122.255 141.211 122.134L136.047 120.674C135.156 121.17 134.226 121.617 133.264 122.01L132.18 126.498C131.986 127.318 131.453 128.055 130.676 128.579C129.899 129.104 128.927 129.382 127.93 129.366H117.9C116.903 129.382 115.931 129.104 115.154 128.579C114.377 128.055 113.844 127.318 113.65 126.498L112.566 122.01C111.597 121.617 110.66 121.17 109.761 120.674L104.619 122.134C104.18 122.255 103.721 122.315 103.259 122.312C102.513 122.312 101.781 122.147 101.136 121.834C100.491 121.522 99.9551 121.072 99.5825 120.531L94.7375 113.406C94.2415 112.692 94.0572 111.855 94.2161 111.04C94.3751 110.224 94.8674 109.48 95.6087 108.935L99.625 105.854ZM103.429 118.75L110.717 116.684C112.424 117.895 114.374 118.842 116.476 119.48L117.985 125.875H128.015L129.524 119.552C131.61 118.895 133.549 117.95 135.261 116.755L142.571 118.75L147.586 111.625L141.806 107.35C142.199 105.506 142.199 103.618 141.806 101.775L147.586 97.375L142.571 90.25L135.282 92.3162C133.576 91.1048 131.626 90.1578 129.524 89.5196L128.015 83.125H117.985L116.476 89.4484C114.39 90.1047 112.451 91.05 110.739 92.245L103.429 90.25L98.4137 97.375L104.194 101.65C103.801 103.494 103.801 105.381 104.194 107.225L98.4137 111.625L103.429 118.75Z" fill="white"/>
<path d="M123 115.188C125.522 115.188 127.987 114.561 130.084 113.386C132.18 112.212 133.814 110.543 134.779 108.59C135.744 106.637 135.997 104.488 135.505 102.415C135.013 100.342 133.799 98.4375 132.016 96.9428C130.232 95.4481 127.961 94.4302 125.487 94.0179C123.014 93.6055 120.451 93.8171 118.121 94.626C115.791 95.435 113.8 96.8048 112.399 98.5623C110.998 100.32 110.25 102.386 110.25 104.5C110.233 105.907 110.551 107.304 111.186 108.607C111.821 109.91 112.759 111.094 113.946 112.089C115.134 113.084 116.546 113.871 118.101 114.403C119.655 114.935 121.321 115.202 123 115.188ZM123 97.375C124.123 97.3531 125.24 97.5224 126.284 97.8727C127.327 98.223 128.274 98.747 129.069 99.413C129.863 100.079 130.488 100.873 130.906 101.748C131.324 102.622 131.526 103.558 131.5 104.5C131.526 105.442 131.324 106.378 130.906 107.252C130.488 108.127 129.863 108.921 129.069 109.587C128.274 110.253 127.327 110.777 126.284 111.127C125.24 111.478 124.123 111.647 123 111.625C121.877 111.647 120.76 111.478 119.716 111.127C118.673 110.777 117.726 110.253 116.931 109.587C116.137 108.921 115.512 108.127 115.094 107.252C114.676 106.378 114.474 105.442 114.5 104.5C114.474 103.558 114.676 102.622 115.094 101.748C115.512 100.873 116.137 100.079 116.931 99.413C117.726 98.747 118.673 98.223 119.716 97.8727C120.76 97.5224 121.877 97.3531 123 97.375Z" fill="white"/>
<path d="M70.03 68.766C69.0679 68.766 68.288 68.2341 68.288 67.578C68.288 66.9219 69.0679 66.39 70.03 66.39C70.9921 66.39 71.772 66.9219 71.772 67.578C71.772 68.2341 70.9921 68.766 70.03 68.766Z" fill="white"/>
<path d="M19 61.669L19.654 61.285C19.704 61.256 24.701 58.291 25.943 54.693L26.22 53.896L26.732 54.565C26.748 54.586 27.458 55.464 29.445 56.494C30.916 48.121 35.92 38.125 42.496 33.863C40.616 34.015 38.73 33.859 36.91 33.197C35.814 32.799 36.287 31.013 37.393 31.417C38.885 31.96 40.38 32.108 41.872 32.032C38.209 28.675 35.333 23.53 35.333 19.768C35.333 18.864 35.333 17.181 36.673 17.181C37.211 17.181 37.646 17.517 38.247 17.981C39.169 18.692 40.561 19.768 42.606 19.768C43.385 19.768 44.811 18.946 45.957 18.286C47.342 17.489 48.227 17 48.971 17C50.203 17 52.014 17.996 53.612 18.875C54.262 19.232 55.151 19.722 55.335 19.769C57.651 19.769 58.996 18.701 59.888 17.994C60.408 17.58 60.785 17.28 61.288 17.28C62.606 17.28 62.606 18.861 62.606 20.692C62.606 24.226 59.914 28.891 56.389 32.026C58.61 32.185 60.8 32.856 62.339 34.347C63.189 35.169 61.901 36.473 61.054 35.653C59.775 34.413 58.098 33.882 56.304 33.779C56.253 33.962 56.191 34.142 56.115 34.319C63.631 39.72 68.97 52.545 68.97 61.203C68.97 62.057 68.904 62.83 68.802 63.558C70.74 62.697 71.447 61.942 71.461 61.925L71.977 61.33L72.231 62.08C73.354 65.384 78.236 68.25 78.285 68.279L79 68.694L78.273 69.087C78.018 69.225 77.765 69.346 77.51 69.477L77.97 69.796L77.727 72.836L58.674 77L51.45 72.379C50.721 72.383 49.983 72.385 49.232 72.385L40.788 77L21.699 71V67.791L22.204 67.488C21.952 67.328 21.7 67.165 21.449 66.997L20.78 66.55L20.927 66.478L20.076 66.245L19.932 62.909L20.424 62.56C20.162 62.403 19.901 62.243 19.639 62.077L19 61.669ZM60.787 20.692C60.787 20.248 60.781 19.902 60.772 19.633C60.619 19.753 60.441 19.884 60.251 20.019C59.668 21.415 58.565 23.425 56.695 24.691C54.423 26.231 54.725 24.461 53.513 22.845C52.301 21.23 51.481 20.384 49.451 24.538C48.566 26.349 47.091 21.288 45.689 20.549C45.318 20.751 44.948 20.939 44.585 21.099C42.071 25.187 40.906 23.912 38.673 20.514C38.059 20.154 37.555 19.768 37.154 19.459C37.152 19.552 37.15 19.655 37.15 19.77C37.15 22.98 39.773 27.584 42.985 30.587C43.1367 30.2016 43.3539 29.8453 43.627 29.534C44.924 28.065 46.951 29.694 47.912 30.763C49.617 30.215 52.395 28.706 54.205 29.57C54.6558 29.7791 55.0698 30.0597 55.431 30.401C58.391 27.703 60.787 23.808 60.787 20.692ZM44.583 31.666C45.0314 31.5709 45.4772 31.4642 45.92 31.346C45.362 30.865 44.85 30.697 44.635 31.412C44.612 31.49 44.598 31.579 44.583 31.666ZM52.183 32.287C52.514 32.224 52.854 32.167 53.204 32.122C53.4694 31.9557 53.7292 31.7806 53.983 31.597C53.069 30.984 51.493 31.31 49.987 31.821C50.73 31.896 51.463 32.058 52.183 32.287ZM51.729 34.927C52.289 35.067 52.899 35.011 53.426 34.801C53.212 34.688 52.996 34.59 52.78 34.491C52.43 34.66 52.08 34.801 51.729 34.927ZM70.226 71.379C72.6111 70.6883 74.9254 69.7732 77.138 68.646C75.781 67.754 72.825 65.597 71.623 63.005C70.799 63.652 68.897 64.832 65.193 65.738C65.256 65.84 65.333 65.949 65.407 66.056C68.569 65.228 70.367 64.181 70.396 64.163L70.832 63.903L71.041 64.37C71.316 64.982 71.961 65.074 72.32 65.074C72.42 65.074 72.487 65.067 72.496 65.066L72.853 65.014L72.983 65.356C73.249 66.054 74.341 66.966 74.741 67.259L75.409 67.749L74.645 68.062C74.361 68.178 74.284 68.285 74.28 68.313C74.27 68.382 74.391 68.564 74.52 68.669L75.102 69.138L74.425 69.451C73.038 70.091 71.467 70.621 69.896 71.058C70.021 71.181 70.129 71.286 70.226 71.379ZM62.162 67.653C60.764 67.849 59.215 67.973 57.523 67.973H57.522C57.17 67.973 56.813 67.967 56.449 67.956C56.4248 68.0315 56.3901 68.1031 56.346 68.169C56.257 68.304 56.137 68.416 55.985 68.503L58.537 70.684C58.5856 70.6819 58.6343 70.6809 58.683 70.681C59.82 70.681 60.668 71.099 61.075 71.843C62.617 71.6463 64.1519 71.3972 65.677 71.096C64.4511 70.0051 63.278 68.8561 62.162 67.653ZM73.511 68.85C73.411 68.661 73.346 68.432 73.381 68.182C73.4142 67.9565 73.5224 67.7487 73.688 67.592C73.239 67.207 72.62 66.613 72.28 65.998C71.507 65.987 70.869 65.694 70.467 65.176C69.79 65.53 68.265 66.245 66.012 66.865C66.933 68.02 68.174 69.33 69.139 70.304C70.643 69.906 72.158 69.426 73.511 68.85ZM59.26 73.059L59.465 73.06C60.326 73.06 63.179 72.99 66.948 72.205C66.816 72.093 66.679 71.978 66.552 71.868C63.494 72.507 61.028 72.781 60.843 72.802L60.477 72.841L60.364 72.486C60.117 71.72 59.206 71.607 58.684 71.607C58.541 71.607 58.446 71.616 58.435 71.617L58.241 71.638L53.808 67.85L54.993 67.811C55.389 67.797 55.556 67.708 55.597 67.647L55.346 66.99L56.04 67.019C56.546 67.041 57.04 67.052 57.523 67.052H57.524C58.92 67.052 60.215 66.96 61.412 66.815L61.134 66.487C58.718 66.81 55.825 67.009 52.332 66.984C53.166 68.154 55.246 70.641 59.26 73.059ZM49.236 68.714V70.539C49.805 70.539 50.359 70.537 50.901 70.533L51.064 68.479L52.418 68.589C51.506 67.511 51.117 66.792 51.082 66.727L50.715 66.033L51.49 66.047C58.908 66.183 63.746 65.299 66.8 64.317C67.023 63.415 67.152 62.395 67.152 61.204C67.152 53.081 61.961 40.803 55.069 35.827C53.848 37.008 51.996 37.525 50.236 36.376C49.85 36.124 49.514 35.794 49.199 35.443C49.124 35.445 49.047 35.462 48.971 35.462C48.719 35.462 48.463 35.441 48.208 35.409C47.885 35.538 47.569 35.668 47.276 35.797C45.873 36.415 44.675 36.031 43.857 35.179C37.544 38.999 32.486 49.104 31.155 57.272C34.041 58.426 38.619 59.552 45.645 59.75C44.259 58.958 43.219 57.626 43.593 55.876C43.986 54.026 45.532 53.506 47.133 53.421C47.137 52.552 47.137 51.685 47.131 50.816C46.64 51.033 46.169 51.283 45.741 51.55C44.985 52.025 44.301 50.794 45.052 50.319C45.7032 49.9096 46.3982 49.5745 47.124 49.32C47.114 48.314 47.109 47.31 47.109 46.306C47.108 45.386 48.475 45.386 48.475 46.306C48.475 47.189 48.481 48.071 48.489 48.952C49.2166 48.8252 49.9595 48.8127 50.691 48.915C50.8099 48.2531 50.954 47.5959 51.123 46.945C51.349 46.059 52.669 46.434 52.44 47.323C52.272 47.962 52.135 48.598 52.022 49.243C52.08 49.265 52.143 49.276 52.2 49.302C54.052 50.035 55.182 51.904 53.827 53.647C53.196 54.459 52.371 54.787 51.468 54.896C51.419 56.099 51.388 57.303 51.353 58.505C51.958 58.112 52.509 57.608 53.008 57.075C53.626 56.423 54.591 57.43 53.974 58.081C53.135 58.974 52.254 59.649 51.299 60.081C51.256 61.108 51.195 62.138 51.095 63.16C51.007 64.067 49.639 64.072 49.728 63.16C49.8123 62.276 49.8746 61.3901 49.915 60.503C49.395 60.593 48.849 60.616 48.269 60.561C48.204 61.507 48.128 62.453 48.02 63.399C47.958 63.941 47.44 64.154 47.058 64.044L47.143 66.008C47.745 66.062 48.359 66.112 48.999 66.154L49.761 66.204L49.355 66.86C49.314 66.926 48.853 67.655 47.824 68.716H49.236V68.714ZM24.348 62.132C25.605 62.723 27.195 63.265 28.815 63.738C29.811 62.709 31.085 61.336 32.036 60.118C29.917 59.476 28.731 58.814 28.196 58.457C27.773 58.83 27.213 59.024 26.55 59.023C26.33 59.023 26.135 59.002 25.985 58.978C25.505 59.6 24.731 60.318 24.247 60.747C24.476 60.982 24.587 61.242 24.578 61.523C24.57 61.763 24.474 61.967 24.348 62.132ZM31.503 65.418C31.299 65.598 31.088 65.782 30.873 65.968C34.927 67.043 37.944 67.16 38.601 67.171C42.799 64.61 44.975 61.9 45.814 60.68C42.301 60.592 39.397 60.274 36.975 59.836C36.8765 59.957 36.7768 60.077 36.676 60.196C38.6227 60.4992 40.5847 60.6938 42.553 60.779L43.36 60.813L42.916 61.492C42.917 61.493 43.007 61.661 43.603 61.777L44.572 61.966L39.808 65.823L39.586 65.763C39.581 65.762 39.161 65.649 38.653 65.649C37.92 65.649 37.419 65.872 37.167 66.308L37.007 66.584L36.696 66.529C34.9541 66.2114 33.2223 65.8409 31.503 65.418ZM45.6 62.479L46.738 62.417C46.791 61.849 46.844 61.281 46.884 60.713C46.684 61.045 46.274 61.669 45.6 62.479ZM47.008 58.818C47.0736 57.4719 47.1133 56.1246 47.127 54.777C46.963 54.783 46.801 54.798 46.647 54.82C44.879 55.088 44.417 57.054 45.797 58.16C46.157 58.445 46.572 58.654 47.008 58.818ZM36.569 65.57C37.017 65.017 37.73 64.727 38.652 64.727C39.037 64.727 39.376 64.779 39.59 64.821L42.585 62.394C42.336 62.251 42.168 62.07 42.076 61.848C42.0533 61.7928 42.0359 61.7355 42.024 61.677C39.65 61.547 37.65 61.31 35.959 61.02C35.139 61.935 33.934 63.197 32.336 64.664C34.299 65.131 35.936 65.451 36.569 65.57ZM48.495 54.813C48.476 56.262 48.44 57.715 48.363 59.163C48.492 59.183 48.619 59.208 48.746 59.221C49.176 59.27 49.584 59.234 49.972 59.136C50.021 57.736 50.053 56.333 50.106 54.932C49.568 54.907 49.023 54.854 48.495 54.813ZM50.175 53.548C50.2375 52.4492 50.3409 51.3531 50.485 50.262C49.8222 50.1709 49.1482 50.2052 48.498 50.363C48.5052 51.3853 48.5068 52.4077 48.503 53.43C48.942 53.454 49.359 53.496 49.726 53.529C49.8754 53.5407 50.0252 53.547 50.175 53.548ZM51.547 53.373C51.632 53.35 51.716 53.332 51.803 53.303C52.2031 53.1674 52.5654 52.9388 52.86 52.636C53.714 51.839 52.542 51.057 51.803 50.686C51.687 51.576 51.607 52.474 51.547 53.373ZM40.51 72.839C44.851 70.621 47.18 68.156 48.105 67.014C47.44 66.964 46.811 66.904 46.188 66.841L39.07 71.461L23.46 67.173C31.51 72.025 39.463 72.764 40.51 72.839ZM27.618 64.949C27.746 64.821 27.899 64.669 28.08 64.486C26.304 63.948 24.586 63.324 23.305 62.638L22.526 62.219L23.316 61.817C23.493 61.726 23.666 61.559 23.669 61.496C23.667 61.472 23.597 61.344 23.294 61.17L22.716 60.838L23.23 60.41C23.246 60.397 24.849 59.066 25.412 58.209L25.598 57.929L25.917 58.022C25.92 58.022 26.194 58.101 26.55 58.101C27.1 58.102 27.512 57.922 27.776 57.568L28.068 57.181L28.434 57.496C28.453 57.512 29.586 58.441 32.625 59.319C32.7251 59.1748 32.8214 59.0281 32.914 58.879C29.229 57.762 27.346 56.41 26.53 55.67C25.22 58.504 22.101 60.787 20.747 61.682C22.9222 62.9983 25.2241 64.0928 27.618 64.949Z" fill="white"/>
<path d="M36.62 62.117C37.617 61.846 38.742 62.031 39.136 62.526C39.527 63.023 39.033 63.649 38.037 63.922C37.039 64.193 35.915 64.007 35.521 63.511C35.13 63.014 35.622 62.39 36.62 62.117Z" fill="white"/>
<path d="M91.52 14.2625C90.6667 14.2625 89.9627 14.49 89.408 14.945C88.8533 15.4 88.576 15.9775 88.576 16.6775V37.3625C88.576 38.0275 88.8533 38.5875 89.408 39.0425C89.9627 39.4975 90.6667 39.7425 91.52 39.7775H106.368V48.2825L118.208 39.7775H133.056C133.867 39.7775 134.549 39.5325 135.104 39.0425C135.659 38.5525 135.957 37.9925 136 37.3625V16.6775C136 15.9775 135.701 15.4 135.104 14.945C134.507 14.49 133.824 14.2625 133.056 14.2625H91.52Z" fill="white"/>
<path d="M41.53 109.84C42.4911 108.89 43.7546 108.307 45.101 108.192C46.4475 108.077 47.7916 108.437 48.9 109.21C45.3372 110.693 42.4268 113.409 40.7 116.86C40.0335 115.766 39.753 114.479 39.9035 113.207C40.054 111.934 40.6266 110.749 41.53 109.84Z" fill="white"/>
<path d="M61.58 109.43C62.6838 108.553 64.0702 108.111 65.4777 108.187C66.8852 108.262 68.2164 108.85 69.22 109.84C70.2153 110.842 70.8048 112.177 70.875 113.587C70.9451 114.998 70.491 116.384 69.6 117.48C67.9955 113.91 65.144 111.048 61.58 109.43Z" fill="white"/>
<path d="M56.6 110.09C59.2109 110.395 61.6831 111.429 63.7339 113.073C65.7846 114.718 67.3309 116.906 68.1959 119.389C69.0609 121.871 69.2096 124.546 68.6249 127.109C68.0403 129.672 66.7459 132.018 64.89 133.88L67.44 136.43C67.5326 136.525 67.6056 136.636 67.655 136.759C67.7043 136.882 67.729 137.013 67.7276 137.146C67.7262 137.278 67.6988 137.409 67.6469 137.53C67.5949 137.652 67.5196 137.762 67.425 137.855C67.3304 137.948 67.2186 138.021 67.0958 138.07C66.973 138.119 66.8417 138.144 66.7094 138.143C66.5771 138.141 66.4463 138.114 66.3246 138.062C66.2029 138.01 66.0926 137.935 66 137.84L63.34 135.18C60.9075 137.021 57.9369 138.01 54.8865 137.996C51.836 137.981 48.875 136.964 46.46 135.1L43.72 137.84C43.5287 138.004 43.2826 138.089 43.0309 138.08C42.7793 138.07 42.5405 137.966 42.3624 137.788C42.1843 137.609 42.08 137.371 42.0703 137.119C42.0606 136.867 42.1462 136.621 42.31 136.43L45 133.78C42.9814 131.712 41.6521 129.07 41.1945 126.217C40.7369 123.364 41.1735 120.439 42.4443 117.844C43.7151 115.248 45.7579 113.11 48.2924 111.722C50.8268 110.333 53.7288 109.763 56.6 110.09ZM53.42 135.9C55.9054 136.226 58.4304 135.765 60.6404 134.582C62.8505 133.399 64.6347 131.554 65.7426 129.306C66.8505 127.057 67.2265 124.518 66.8178 122.045C66.409 119.572 65.2361 117.289 63.4637 115.516C61.6912 113.744 59.4082 112.571 56.9351 112.162C54.462 111.753 51.923 112.129 49.6745 113.237C47.426 114.345 45.5809 116.13 44.3982 118.34C43.2154 120.55 42.7545 123.075 43.08 125.56C43.4234 128.182 44.6233 130.617 46.4931 132.487C48.3629 134.357 50.798 135.557 53.42 135.9Z" fill="white"/>
<path d="M48.08 126.34L54.14 123.34V115.5C54.14 115.261 54.2348 115.032 54.4036 114.864C54.5724 114.695 54.8013 114.6 55.04 114.6C55.2787 114.6 55.5076 114.695 55.6764 114.864C55.8452 115.032 55.94 115.261 55.94 115.5V124.5L48.88 128C48.6652 128.105 48.4175 128.12 48.1916 128.042C47.9656 127.964 47.7798 127.8 47.675 127.585C47.5702 127.37 47.5551 127.123 47.6329 126.897C47.7108 126.671 47.8752 126.485 48.09 126.38L48.08 126.34Z" fill="white"/>
<path d="M149.094 51.5469C149.097 48.8602 149.881 46.2343 151.349 43.9987C152.817 41.763 154.902 40.0173 157.344 38.9807V35.8438C157.343 33.2154 158.228 30.666 159.852 28.619C161.476 26.5721 163.742 25.1508 166.271 24.5915C168.801 24.0321 171.443 24.3683 173.759 25.5442C176.074 26.72 177.924 28.6648 179 31.0553C180.076 28.6648 181.926 26.72 184.241 25.5442C186.557 24.3683 189.199 24.0321 191.729 24.5915C194.258 25.1508 196.524 26.5721 198.148 28.619C199.772 30.666 200.657 33.2154 200.656 35.8438V38.9807C203.099 40.0144 205.187 41.759 206.655 43.9948C208.123 46.2306 208.906 48.8574 208.906 51.5444C208.906 54.2313 208.123 56.8582 206.655 59.094C205.187 61.3297 203.099 63.0744 200.656 64.1081V65.1562C200.657 67.7846 199.772 70.334 198.148 72.381C196.524 74.4279 194.258 75.8492 191.729 76.4085C189.199 76.9679 186.557 76.6317 184.241 75.4558C181.926 74.28 180.076 72.3352 179 69.9447C177.924 72.3352 176.074 74.28 173.759 75.4558C171.443 76.6317 168.801 76.9679 166.271 76.4085C163.742 75.8492 161.476 74.4279 159.852 72.381C158.228 70.334 157.343 67.7846 157.344 65.1562V64.1081C154.902 63.0725 152.817 61.3278 151.349 59.093C149.881 56.8582 149.097 54.2329 149.094 51.5469ZM189.312 74.5781C191.773 74.5753 194.132 73.5818 195.872 71.8155C197.612 70.0491 198.591 67.6542 198.594 65.1562V64.7864C197.58 65.0315 196.542 65.1556 195.5 65.1562H193.437C193.164 65.1562 192.902 65.046 192.708 64.8496C192.515 64.6533 192.406 64.387 192.406 64.1094C192.406 63.8317 192.515 63.5654 192.708 63.3691C192.902 63.1728 193.164 63.0625 193.437 63.0625H195.5C198.176 63.062 200.766 62.1012 202.812 60.35C204.858 58.5987 206.228 56.1697 206.68 53.4922C207.133 50.8147 206.638 48.0609 205.284 45.7176C203.931 43.3743 201.804 41.5923 199.281 40.6863C199.08 40.6141 198.906 40.4804 198.783 40.3036C198.66 40.1268 198.594 39.9156 198.594 39.6991L198.594 35.8438C198.594 33.3449 197.616 30.9484 195.875 29.1815C194.135 27.4145 191.774 26.4219 189.312 26.4219C186.851 26.4219 184.49 27.4145 182.75 29.1815C181.009 30.9484 180.031 33.3449 180.031 35.8438V58.5473C181.076 57.0326 182.465 55.7959 184.081 54.9418C185.696 54.0876 187.491 53.6413 189.312 53.6406C189.586 53.6406 189.848 53.7509 190.042 53.9472C190.235 54.1436 190.344 54.4098 190.344 54.6875C190.344 54.9651 190.235 55.2314 190.042 55.4278C189.848 55.6241 189.586 55.7344 189.312 55.7344C186.851 55.7344 184.49 56.727 182.75 58.494C181.009 60.2609 180.031 62.6574 180.031 65.1562C180.031 67.6551 181.009 70.0516 182.75 71.8185C184.49 73.5855 186.851 74.5781 189.312 74.5781ZM162.5 63.0625H164.562C164.836 63.0625 165.098 63.1728 165.292 63.3691C165.485 63.5654 165.594 63.8317 165.594 64.1094C165.594 64.387 165.485 64.6533 165.292 64.8496C165.098 65.046 164.836 65.1562 164.562 65.1562H162.5C161.458 65.1556 160.42 65.0315 159.406 64.7864V65.1562C159.406 67.0197 159.951 68.8413 160.97 70.3908C161.99 71.9402 163.44 73.1478 165.136 73.8609C166.832 74.574 168.698 74.7606 170.498 74.3971C172.299 74.0335 173.952 73.1362 175.25 71.8185C176.548 70.5008 177.432 68.822 177.79 66.9944C178.149 65.1667 177.965 63.2723 177.262 61.5507C176.56 59.829 175.37 58.3575 173.844 57.3222C172.318 56.287 170.523 55.7344 168.687 55.7344C168.414 55.7344 168.152 55.6241 167.958 55.4278C167.765 55.2314 167.656 54.9651 167.656 54.6875C167.656 54.4098 167.765 54.1436 167.958 53.9472C168.152 53.7509 168.414 53.6406 168.687 53.6406C170.509 53.6413 172.304 54.0876 173.919 54.9418C175.535 55.7959 176.924 57.0326 177.969 58.5473V35.8438C177.969 33.3449 176.991 30.9484 175.25 29.1815C173.51 27.4145 171.149 26.4219 168.687 26.4219C166.226 26.4219 163.865 27.4145 162.125 29.1815C160.384 30.9484 159.406 33.3449 159.406 35.8438L159.406 39.6991C159.406 39.9157 159.34 40.1269 159.217 40.3037C159.094 40.4805 158.92 40.6142 158.718 40.6863C156.195 41.5923 154.069 43.3743 152.715 45.7177C151.361 48.061 150.867 50.8148 151.319 53.4923C151.772 56.1699 153.142 58.5989 155.188 60.3501C157.234 62.1013 159.824 63.062 162.5 63.0625ZM188.281 41.0781C188.284 43.2985 189.154 45.4273 190.7 46.9974C192.247 48.5675 194.344 49.4506 196.531 49.4531C196.805 49.4531 197.067 49.3428 197.26 49.1465C197.454 48.9502 197.562 48.6839 197.562 48.4062C197.562 48.1286 197.454 47.8623 197.26 47.666C197.067 47.4697 196.805 47.3594 196.531 47.3594C194.891 47.3575 193.318 46.6951 192.158 45.5176C190.998 44.34 190.346 42.7434 190.344 41.0781V38.9844C190.344 38.7067 190.235 38.4404 190.042 38.2441C189.848 38.0478 189.586 37.9375 189.312 37.9375C189.039 37.9375 188.777 38.0478 188.583 38.2441C188.39 38.4404 188.281 38.7067 188.281 38.9844V41.0781ZM160.437 48.4062C160.437 48.6839 160.546 48.9502 160.74 49.1465C160.933 49.3428 161.195 49.4531 161.469 49.4531C163.656 49.4506 165.753 48.5675 167.3 46.9974C168.846 45.4273 169.716 43.2985 169.719 41.0781V38.9844C169.719 38.7067 169.61 38.4404 169.417 38.2441C169.223 38.0478 168.961 37.9375 168.687 37.9375C168.414 37.9375 168.152 38.0478 167.958 38.2441C167.765 38.4404 167.656 38.7067 167.656 38.9844V41.0781C167.654 42.7434 167.002 44.34 165.842 45.5176C164.682 46.6951 163.109 47.3575 161.469 47.3594C161.195 47.3594 160.933 47.4697 160.74 47.666C160.546 47.8623 160.437 48.1286 160.437 48.4062Z" fill="white"/>
<defs>
<clipPath id="clip0_27_498">
<rect width="30" height="30" fill="white" transform="matrix(-1 0 0 1 401 10)"/>
</clipPath>
<clipPath id="clip1_27_498">
<rect width="24" height="24" fill="white" transform="matrix(-1 0 0 1 334 108)"/>
</clipPath>
<clipPath id="clip2_27_498">
<rect width="38" height="45" fill="white" transform="matrix(-1 0 0 1 297 52)"/>
</clipPath>
<clipPath id="clip3_27_498">
<rect width="29" height="29" fill="white" transform="matrix(-1 0 0 1 532 7)"/>
</clipPath>
</defs>
</svg>
