<svg width="40" height="40" viewBox="0 0 40 40" fill="none" xmlns="http://www.w3.org/2000/svg">
<path d="M20 0.800049C9.39602 0.800049 0.800018 9.39605 0.800018 20C0.800018 30.604 9.39602 39.2001 20 39.2001C30.604 39.2001 39.2 30.604 39.2 20C39.2 9.39605 30.604 0.800049 20 0.800049ZM15.3 27.958H11.412V15.446H15.3V27.958ZM13.332 13.91C12.104 13.91 11.31 13.04 11.31 11.964C11.31 10.866 12.128 10.022 13.382 10.022C14.636 10.022 15.404 10.866 15.428 11.964C15.428 13.04 14.636 13.91 13.332 13.91ZM29.5 27.958H25.612V21.024C25.612 19.41 25.048 18.314 23.642 18.314C22.568 18.314 21.93 19.056 21.648 19.7701C21.544 20.024 21.518 20.3841 21.518 20.7421V27.956H17.628V19.4361C17.628 17.8741 17.578 16.568 17.526 15.444H20.904L21.082 17.182H21.16C21.672 16.366 22.926 15.162 25.024 15.162C27.582 15.162 29.5 16.876 29.5 20.56V27.958Z" fill="white"/>
</svg>
